<?xml version="1.0"?>
<!-- Created by MetaPost 2.00 on 2021.02.28:1021 -->
<svg version="1.1" xmlns="http://www.w3.org/2000/svg" xmlns:xlink="http://www.w3.org/1999/xlink" width="509.663849" height="42.899567" viewBox="0 0 509.663849 42.899567">
<!-- Original BoundingBox: -71.345749 -32.731064 438.318100 10.168503 -->
  <defs>
    <g transform="scale(0.009963,0.009963)" id="GLYPHcmr10_43">
      <path style="fill-rule: evenodd;" d="M409.000000 -230.000000L688.000000 -230.000000C702.000000 -230.000000,721.000000 -230.000000,721.000000 -250.000000C721.000000 -270.000000,702.000000 -270.000000,688.000000 -270.000000L409.000000 -270.000000L409.000000 -550.000000C409.000000 -564.000000,409.000000 -583.000000,389.000000 -583.000000C369.000000 -583.000000,369.000000 -564.000000,369.000000 -550.000000L369.000000 -270.000000L89.000000 -270.000000C75.000000 -270.000000,56.000000 -270.000000,56.000000 -250.000000C56.000000 -230.000000,75.000000 -230.000000,89.000000 -230.000000L369.000000 -230.000000L369.000000 50.000000C369.000000 64.000000,369.000000 83.000000,389.000000 83.000000C409.000000 83.000000,409.000000 64.000000,409.000000 50.000000"></path>
    </g>
    <g transform="scale(0.009963,0.009963)" id="GLYPHcmr10_49">
      <path style="fill-rule: evenodd;" d="M294.000000 -640.000000C294.000000 -664.000000,294.000000 -666.000000,271.000000 -666.000000C209.000000 -602.000000,121.000000 -602.000000,89.000000 -602.000000L89.000000 -571.000000C109.000000 -571.000000,168.000000 -571.000000,220.000000 -597.000000L220.000000 -79.000000C220.000000 -43.000000,217.000000 -31.000000,127.000000 -31.000000L95.000000 -31.000000L95.000000 -0.000000C130.000000 -3.000000,217.000000 -3.000000,257.000000 -3.000000C297.000000 -3.000000,384.000000 -3.000000,419.000000 -0.000000L419.000000 -31.000000L387.000000 -31.000000C297.000000 -31.000000,294.000000 -42.000000,294.000000 -79.000000"></path>
    </g>
    <g transform="scale(0.009963,0.009963)" id="GLYPHcmr10_65">
      <path style="fill-rule: evenodd;" d="M398.000000 -696.000000C393.000000 -709.000000,391.000000 -716.000000,375.000000 -716.000000C359.000000 -716.000000,356.000000 -710.000000,351.000000 -696.000000L144.000000 -98.000000C126.000000 -47.000000,86.000000 -32.000000,32.000000 -31.000000L32.000000 -0.000000C55.000000 -1.000000,98.000000 -3.000000,134.000000 -3.000000C165.000000 -3.000000,217.000000 -1.000000,249.000000 -0.000000L249.000000 -31.000000C199.000000 -31.000000,174.000000 -56.000000,174.000000 -82.000000C174.000000 -85.000000,175.000000 -95.000000,176.000000 -97.000000L222.000000 -228.000000L469.000000 -228.000000L522.000000 -75.000000C523.000000 -71.000000,525.000000 -65.000000,525.000000 -61.000000C525.000000 -31.000000,469.000000 -31.000000,442.000000 -31.000000L442.000000 -0.000000C478.000000 -3.000000,548.000000 -3.000000,586.000000 -3.000000C629.000000 -3.000000,675.000000 -2.000000,717.000000 -0.000000L717.000000 -31.000000L699.000000 -31.000000C639.000000 -31.000000,625.000000 -38.000000,614.000000 -71.000000M345.000000 -584.000000L458.000000 -259.000000L233.000000 -259.000000"></path>
    </g>
    <g transform="scale(0.009963,0.009963)" id="GLYPHcmr10_67">
      <path style="fill-rule: evenodd;" d="M56.000000 -342.000000C56.000000 -135.000000,218.000000 22.000000,404.000000 22.000000C567.000000 22.000000,665.000000 -117.000000,665.000000 -233.000000C665.000000 -243.000000,665.000000 -250.000000,652.000000 -250.000000C641.000000 -250.000000,641.000000 -244.000000,640.000000 -234.000000C632.000000 -91.000000,525.000000 -9.000000,416.000000 -9.000000C355.000000 -9.000000,159.000000 -43.000000,159.000000 -341.000000C159.000000 -640.000000,354.000000 -674.000000,415.000000 -674.000000C524.000000 -674.000000,613.000000 -583.000000,633.000000 -437.000000C635.000000 -423.000000,635.000000 -420.000000,649.000000 -420.000000C665.000000 -420.000000,665.000000 -423.000000,665.000000 -444.000000L665.000000 -681.000000C665.000000 -698.000000,665.000000 -705.000000,654.000000 -705.000000C650.000000 -705.000000,646.000000 -705.000000,638.000000 -693.000000L588.000000 -619.000000C551.000000 -655.000000,500.000000 -705.000000,404.000000 -705.000000C217.000000 -705.000000,56.000000 -546.000000,56.000000 -342.000000"></path>
    </g>
    <g transform="scale(0.009963,0.009963)" id="GLYPHcmr10_68">
      <path style="fill-rule: evenodd;" d="M35.000000 -683.000000L35.000000 -652.000000L59.000000 -652.000000C136.000000 -652.000000,138.000000 -641.000000,138.000000 -605.000000L138.000000 -78.000000C138.000000 -42.000000,136.000000 -31.000000,59.000000 -31.000000L35.000000 -31.000000L35.000000 -0.000000L401.000000 -0.000000C569.000000 -0.000000,707.000000 -148.000000,707.000000 -336.000000C707.000000 -526.000000,572.000000 -683.000000,401.000000 -683.000000M273.000000 -31.000000C226.000000 -31.000000,224.000000 -38.000000,224.000000 -71.000000L224.000000 -612.000000C224.000000 -645.000000,226.000000 -652.000000,273.000000 -652.000000L373.000000 -652.000000C435.000000 -652.000000,504.000000 -630.000000,555.000000 -559.000000C598.000000 -500.000000,607.000000 -414.000000,607.000000 -336.000000C607.000000 -225.000000,588.000000 -165.000000,552.000000 -116.000000C532.000000 -89.000000,475.000000 -31.000000,374.000000 -31.000000"></path>
    </g>
    <g transform="scale(0.009963,0.009963)" id="GLYPHcmr10_69">
      <path style="fill-rule: evenodd;" d="M136.000000 -78.000000C136.000000 -42.000000,134.000000 -31.000000,57.000000 -31.000000L33.000000 -31.000000L33.000000 -0.000000L610.000000 -0.000000L652.000000 -258.000000L627.000000 -258.000000C602.000000 -104.000000,579.000000 -31.000000,407.000000 -31.000000L274.000000 -31.000000C227.000000 -31.000000,225.000000 -38.000000,225.000000 -71.000000L225.000000 -338.000000L315.000000 -338.000000C412.000000 -338.000000,423.000000 -306.000000,423.000000 -221.000000L448.000000 -221.000000L448.000000 -486.000000L423.000000 -486.000000C423.000000 -400.000000,412.000000 -369.000000,315.000000 -369.000000L225.000000 -369.000000L225.000000 -609.000000C225.000000 -642.000000,227.000000 -649.000000,274.000000 -649.000000L403.000000 -649.000000C556.000000 -649.000000,583.000000 -594.000000,599.000000 -455.000000L624.000000 -455.000000L596.000000 -680.000000L33.000000 -680.000000L33.000000 -649.000000L57.000000 -649.000000C134.000000 -649.000000,136.000000 -638.000000,136.000000 -602.000000"></path>
    </g>
    <g transform="scale(0.009963,0.009963)" id="GLYPHcmr10_80">
      <path style="fill-rule: evenodd;" d="M227.000000 -316.000000L396.000000 -316.000000C516.000000 -316.000000,624.000000 -397.000000,624.000000 -497.000000C624.000000 -595.000000,525.000000 -683.000000,388.000000 -683.000000L35.000000 -683.000000L35.000000 -652.000000L59.000000 -652.000000C136.000000 -652.000000,138.000000 -641.000000,138.000000 -605.000000L138.000000 -78.000000C138.000000 -42.000000,136.000000 -31.000000,59.000000 -31.000000L35.000000 -31.000000L35.000000 -0.000000C70.000000 -3.000000,144.000000 -3.000000,182.000000 -3.000000C220.000000 -3.000000,295.000000 -3.000000,330.000000 -0.000000L330.000000 -31.000000L306.000000 -31.000000C229.000000 -31.000000,227.000000 -42.000000,227.000000 -78.000000M224.000000 -342.000000L224.000000 -612.000000C224.000000 -645.000000,226.000000 -652.000000,273.000000 -652.000000L362.000000 -652.000000C521.000000 -652.000000,521.000000 -546.000000,521.000000 -497.000000C521.000000 -450.000000,521.000000 -342.000000,362.000000 -342.000000"></path>
    </g>
    <g transform="scale(0.009963,0.009963)" id="GLYPHcmr10_82">
      <path style="fill-rule: evenodd;" d="M224.000000 -353.000000L224.000000 -612.000000C224.000000 -635.000000,224.000000 -647.000000,246.000000 -650.000000C256.000000 -652.000000,285.000000 -652.000000,305.000000 -652.000000C395.000000 -652.000000,507.000000 -648.000000,507.000000 -503.000000C507.000000 -434.000000,483.000000 -353.000000,335.000000 -353.000000M435.000000 -340.000000C532.000000 -364.000000,610.000000 -425.000000,610.000000 -503.000000C610.000000 -599.000000,496.000000 -683.000000,349.000000 -683.000000L35.000000 -683.000000L35.000000 -652.000000L59.000000 -652.000000C136.000000 -652.000000,138.000000 -641.000000,138.000000 -605.000000L138.000000 -78.000000C138.000000 -42.000000,136.000000 -31.000000,59.000000 -31.000000L35.000000 -31.000000L35.000000 -0.000000C71.000000 -3.000000,142.000000 -3.000000,181.000000 -3.000000C220.000000 -3.000000,291.000000 -3.000000,327.000000 -0.000000L327.000000 -31.000000L303.000000 -31.000000C226.000000 -31.000000,224.000000 -42.000000,224.000000 -78.000000L224.000000 -331.000000L339.000000 -331.000000C355.000000 -331.000000,397.000000 -331.000000,432.000000 -297.000000C470.000000 -261.000000,470.000000 -230.000000,470.000000 -163.000000C470.000000 -98.000000,470.000000 -58.000000,511.000000 -20.000000C552.000000 16.000000,607.000000 22.000000,637.000000 22.000000C715.000000 22.000000,732.000000 -60.000000,732.000000 -88.000000C732.000000 -94.000000,732.000000 -105.000000,719.000000 -105.000000C708.000000 -105.000000,708.000000 -96.000000,707.000000 -89.000000C701.000000 -18.000000,666.000000 -0.000000,641.000000 -0.000000C592.000000 -0.000000,584.000000 -51.000000,570.000000 -144.000000L557.000000 -224.000000C539.000000 -288.000000,490.000000 -321.000000,435.000000 -340.000000"></path>
    </g>
    <g transform="scale(0.009963,0.009963)" id="GLYPHcmr10_83">
      <path style="fill-rule: evenodd;" d="M349.000000 -388.000000L221.000000 -419.000000C159.000000 -434.000000,120.000000 -488.000000,120.000000 -546.000000C120.000000 -616.000000,174.000000 -677.000000,252.000000 -677.000000C419.000000 -677.000000,441.000000 -513.000000,447.000000 -468.000000C448.000000 -462.000000,448.000000 -456.000000,459.000000 -456.000000C472.000000 -456.000000,472.000000 -461.000000,472.000000 -480.000000L472.000000 -681.000000C472.000000 -698.000000,472.000000 -705.000000,461.000000 -705.000000C454.000000 -705.000000,453.000000 -704.000000,446.000000 -692.000000L411.000000 -635.000000C381.000000 -664.000000,340.000000 -705.000000,251.000000 -705.000000C140.000000 -705.000000,56.000000 -617.000000,56.000000 -511.000000C56.000000 -428.000000,109.000000 -355.000000,187.000000 -328.000000C198.000000 -324.000000,249.000000 -312.000000,319.000000 -295.000000C346.000000 -288.000000,376.000000 -281.000000,404.000000 -244.000000C425.000000 -218.000000,435.000000 -185.000000,435.000000 -152.000000C435.000000 -81.000000,385.000000 -9.000000,301.000000 -9.000000C272.000000 -9.000000,196.000000 -14.000000,143.000000 -63.000000C85.000000 -117.000000,82.000000 -181.000000,81.000000 -217.000000C80.000000 -227.000000,72.000000 -227.000000,69.000000 -227.000000C56.000000 -227.000000,56.000000 -220.000000,56.000000 -202.000000L56.000000 -2.000000C56.000000 15.000000,56.000000 22.000000,67.000000 22.000000C74.000000 22.000000,75.000000 20.000000,82.000000 9.000000C82.000000 8.000000,85.000000 5.000000,118.000000 -48.000000C149.000000 -14.000000,213.000000 22.000000,302.000000 22.000000C419.000000 22.000000,499.000000 -76.000000,499.000000 -186.000000C499.000000 -286.000000,433.000000 -368.000000,349.000000 -388.000000"></path>
    </g>
    <g transform="scale(0.009963,0.009963)" id="GLYPHcmr10_97">
      <path style="fill-rule: evenodd;" d="M333.000000 -76.000000C337.000000 -36.000000,364.000000 6.000000,411.000000 6.000000C432.000000 6.000000,493.000000 -8.000000,493.000000 -89.000000L493.000000 -145.000000L468.000000 -145.000000L468.000000 -89.000000C468.000000 -31.000000,443.000000 -25.000000,432.000000 -25.000000C399.000000 -25.000000,395.000000 -70.000000,395.000000 -75.000000L395.000000 -275.000000C395.000000 -317.000000,395.000000 -356.000000,359.000000 -393.000000C320.000000 -432.000000,270.000000 -448.000000,222.000000 -448.000000C140.000000 -448.000000,71.000000 -401.000000,71.000000 -335.000000C71.000000 -305.000000,91.000000 -288.000000,117.000000 -288.000000C145.000000 -288.000000,163.000000 -308.000000,163.000000 -334.000000C163.000000 -346.000000,158.000000 -379.000000,112.000000 -380.000000C139.000000 -415.000000,188.000000 -426.000000,220.000000 -426.000000C269.000000 -426.000000,326.000000 -387.000000,326.000000 -298.000000L326.000000 -261.000000C275.000000 -258.000000,205.000000 -255.000000,142.000000 -225.000000C67.000000 -191.000000,42.000000 -139.000000,42.000000 -95.000000C42.000000 -14.000000,139.000000 11.000000,202.000000 11.000000C268.000000 11.000000,314.000000 -29.000000,333.000000 -76.000000M326.000000 -240.000000L326.000000 -140.000000C326.000000 -45.000000,254.000000 -11.000000,209.000000 -11.000000C160.000000 -11.000000,119.000000 -46.000000,119.000000 -96.000000C119.000000 -151.000000,161.000000 -234.000000,326.000000 -240.000000"></path>
    </g>
    <g transform="scale(0.009963,0.009963)" id="GLYPHcmr10_99">
      <path style="fill-rule: evenodd;" d="M117.000000 -218.000000C117.000000 -381.000000,199.000000 -423.000000,252.000000 -423.000000C261.000000 -423.000000,324.000000 -422.000000,359.000000 -386.000000C318.000000 -383.000000,312.000000 -353.000000,312.000000 -340.000000C312.000000 -314.000000,330.000000 -294.000000,358.000000 -294.000000C384.000000 -294.000000,404.000000 -311.000000,404.000000 -341.000000C404.000000 -409.000000,328.000000 -448.000000,251.000000 -448.000000C126.000000 -448.000000,34.000000 -340.000000,34.000000 -216.000000C34.000000 -88.000000,133.000000 11.000000,249.000000 11.000000C383.000000 11.000000,415.000000 -109.000000,415.000000 -119.000000C415.000000 -129.000000,405.000000 -129.000000,402.000000 -129.000000C393.000000 -129.000000,391.000000 -125.000000,389.000000 -119.000000C360.000000 -26.000000,295.000000 -14.000000,258.000000 -14.000000C205.000000 -14.000000,117.000000 -57.000000,117.000000 -218.000000"></path>
    </g>
    <g transform="scale(0.009963,0.009963)" id="GLYPHcmr10_100">
      <path style="fill-rule: evenodd;" d="M380.000000 -55.000000L380.000000 11.000000L527.000000 -0.000000L527.000000 -31.000000C457.000000 -31.000000,449.000000 -38.000000,449.000000 -87.000000L449.000000 -694.000000L305.000000 -683.000000L305.000000 -652.000000C375.000000 -652.000000,383.000000 -645.000000,383.000000 -596.000000L383.000000 -380.000000C354.000000 -416.000000,311.000000 -442.000000,257.000000 -442.000000C139.000000 -442.000000,34.000000 -344.000000,34.000000 -215.000000C34.000000 -88.000000,132.000000 11.000000,246.000000 11.000000C310.000000 11.000000,355.000000 -23.000000,380.000000 -55.000000M380.000000 -323.000000L380.000000 -118.000000C380.000000 -100.000000,380.000000 -98.000000,369.000000 -81.000000C339.000000 -33.000000,294.000000 -11.000000,251.000000 -11.000000C206.000000 -11.000000,170.000000 -37.000000,146.000000 -75.000000C120.000000 -116.000000,117.000000 -173.000000,117.000000 -214.000000C117.000000 -251.000000,119.000000 -311.000000,148.000000 -356.000000C169.000000 -387.000000,207.000000 -420.000000,261.000000 -420.000000C296.000000 -420.000000,338.000000 -405.000000,369.000000 -360.000000C380.000000 -343.000000,380.000000 -341.000000,380.000000 -323.000000"></path>
    </g>
    <g transform="scale(0.009963,0.009963)" id="GLYPHcmr10_101">
      <path style="fill-rule: evenodd;" d="M112.000000 -252.000000C118.000000 -401.000000,202.000000 -426.000000,236.000000 -426.000000C339.000000 -426.000000,349.000000 -291.000000,349.000000 -252.000000M111.000000 -231.000000L390.000000 -231.000000C412.000000 -231.000000,415.000000 -231.000000,415.000000 -252.000000C415.000000 -351.000000,361.000000 -448.000000,236.000000 -448.000000C120.000000 -448.000000,28.000000 -345.000000,28.000000 -220.000000C28.000000 -86.000000,133.000000 11.000000,248.000000 11.000000C370.000000 11.000000,415.000000 -100.000000,415.000000 -119.000000C415.000000 -129.000000,407.000000 -131.000000,402.000000 -131.000000C393.000000 -131.000000,391.000000 -125.000000,389.000000 -117.000000C354.000000 -14.000000,264.000000 -14.000000,254.000000 -14.000000C204.000000 -14.000000,164.000000 -44.000000,141.000000 -81.000000C111.000000 -129.000000,111.000000 -195.000000,111.000000 -231.000000"></path>
    </g>
    <g transform="scale(0.009963,0.009963)" id="GLYPHcmr10_102">
      <path style="fill-rule: evenodd;" d="M175.000000 -431.000000L175.000000 -547.000000C175.000000 -635.000000,223.000000 -683.000000,267.000000 -683.000000C270.000000 -683.000000,285.000000 -683.000000,300.000000 -676.000000C288.000000 -672.000000,270.000000 -659.000000,270.000000 -634.000000C270.000000 -611.000000,286.000000 -591.000000,313.000000 -591.000000C342.000000 -591.000000,357.000000 -611.000000,357.000000 -635.000000C357.000000 -672.000000,320.000000 -705.000000,267.000000 -705.000000C197.000000 -705.000000,112.000000 -652.000000,112.000000 -546.000000L112.000000 -431.000000L33.000000 -431.000000L33.000000 -400.000000L112.000000 -400.000000L112.000000 -76.000000C112.000000 -31.000000,101.000000 -31.000000,34.000000 -31.000000L34.000000 -0.000000C73.000000 -1.000000,120.000000 -3.000000,148.000000 -3.000000C188.000000 -3.000000,235.000000 -3.000000,275.000000 -0.000000L275.000000 -31.000000L254.000000 -31.000000C180.000000 -31.000000,178.000000 -42.000000,178.000000 -78.000000L178.000000 -400.000000L292.000000 -400.000000L292.000000 -431.000000"></path>
    </g>
    <g transform="scale(0.009963,0.009963)" id="GLYPHcmr10_103">
      <path style="fill-rule: evenodd;" d="M222.000000 -172.000000C135.000000 -172.000000,135.000000 -272.000000,135.000000 -295.000000C135.000000 -322.000000,136.000000 -354.000000,151.000000 -379.000000C159.000000 -391.000000,182.000000 -419.000000,222.000000 -419.000000C309.000000 -419.000000,309.000000 -319.000000,309.000000 -296.000000C309.000000 -269.000000,308.000000 -237.000000,293.000000 -212.000000C285.000000 -200.000000,262.000000 -172.000000,222.000000 -172.000000M106.000000 -133.000000C106.000000 -137.000000,106.000000 -160.000000,123.000000 -180.000000C162.000000 -152.000000,203.000000 -149.000000,222.000000 -149.000000C315.000000 -149.000000,384.000000 -218.000000,384.000000 -295.000000C384.000000 -332.000000,368.000000 -369.000000,343.000000 -392.000000C379.000000 -426.000000,415.000000 -431.000000,433.000000 -431.000000C435.000000 -431.000000,440.000000 -431.000000,443.000000 -430.000000C432.000000 -426.000000,427.000000 -415.000000,427.000000 -403.000000C427.000000 -386.000000,440.000000 -374.000000,456.000000 -374.000000C466.000000 -374.000000,485.000000 -381.000000,485.000000 -404.000000C485.000000 -421.000000,473.000000 -453.000000,434.000000 -453.000000C414.000000 -453.000000,370.000000 -447.000000,328.000000 -406.000000C286.000000 -439.000000,244.000000 -442.000000,222.000000 -442.000000C129.000000 -442.000000,60.000000 -373.000000,60.000000 -296.000000C60.000000 -252.000000,82.000000 -214.000000,107.000000 -193.000000C94.000000 -178.000000,76.000000 -145.000000,76.000000 -110.000000C76.000000 -79.000000,89.000000 -41.000000,120.000000 -21.000000C60.000000 -4.000000,28.000000 39.000000,28.000000 79.000000C28.000000 151.000000,127.000000 206.000000,249.000000 206.000000C367.000000 206.000000,471.000000 155.000000,471.000000 77.000000C471.000000 42.000000,457.000000 -9.000000,406.000000 -37.000000C353.000000 -65.000000,295.000000 -65.000000,234.000000 -65.000000C209.000000 -65.000000,166.000000 -65.000000,159.000000 -66.000000C127.000000 -70.000000,106.000000 -101.000000,106.000000 -133.000000M250.000000 183.000000C149.000000 183.000000,80.000000 132.000000,80.000000 79.000000C80.000000 33.000000,118.000000 -4.000000,162.000000 -7.000000L221.000000 -7.000000C307.000000 -7.000000,419.000000 -7.000000,419.000000 79.000000C419.000000 133.000000,348.000000 183.000000,250.000000 183.000000"></path>
    </g>
    <g transform="scale(0.009963,0.009963)" id="GLYPHcmr10_105">
      <path style="fill-rule: evenodd;" d="M177.000000 -442.000000L37.000000 -431.000000L37.000000 -400.000000C102.000000 -400.000000,111.000000 -394.000000,111.000000 -345.000000L111.000000 -76.000000C111.000000 -31.000000,100.000000 -31.000000,33.000000 -31.000000L33.000000 -0.000000C65.000000 -1.000000,119.000000 -3.000000,143.000000 -3.000000C178.000000 -3.000000,213.000000 -1.000000,247.000000 -0.000000L247.000000 -31.000000C181.000000 -31.000000,177.000000 -36.000000,177.000000 -75.000000M181.000000 -616.000000C181.000000 -648.000000,156.000000 -669.000000,128.000000 -669.000000C97.000000 -669.000000,75.000000 -642.000000,75.000000 -616.000000C75.000000 -589.000000,97.000000 -563.000000,128.000000 -563.000000C156.000000 -563.000000,181.000000 -584.000000,181.000000 -616.000000"></path>
    </g>
    <g transform="scale(0.009963,0.009963)" id="GLYPHcmr10_108">
      <path style="fill-rule: evenodd;" d="M177.000000 -694.000000L33.000000 -683.000000L33.000000 -652.000000C103.000000 -652.000000,111.000000 -645.000000,111.000000 -596.000000L111.000000 -76.000000C111.000000 -31.000000,100.000000 -31.000000,33.000000 -31.000000L33.000000 -0.000000C66.000000 -1.000000,119.000000 -3.000000,144.000000 -3.000000C169.000000 -3.000000,218.000000 -1.000000,255.000000 -0.000000L255.000000 -31.000000C188.000000 -31.000000,177.000000 -31.000000,177.000000 -76.000000"></path>
    </g>
    <g transform="scale(0.009963,0.009963)" id="GLYPHcmr10_110">
      <path style="fill-rule: evenodd;" d="M110.000000 -344.000000L110.000000 -76.000000C110.000000 -31.000000,99.000000 -31.000000,32.000000 -31.000000L32.000000 -0.000000C67.000000 -1.000000,118.000000 -3.000000,145.000000 -3.000000C171.000000 -3.000000,223.000000 -1.000000,257.000000 -0.000000L257.000000 -31.000000C190.000000 -31.000000,179.000000 -31.000000,179.000000 -76.000000L179.000000 -260.000000C179.000000 -364.000000,250.000000 -420.000000,314.000000 -420.000000C377.000000 -420.000000,388.000000 -366.000000,388.000000 -309.000000L388.000000 -76.000000C388.000000 -31.000000,377.000000 -31.000000,310.000000 -31.000000L310.000000 -0.000000C345.000000 -1.000000,396.000000 -3.000000,423.000000 -3.000000C449.000000 -3.000000,501.000000 -1.000000,535.000000 -0.000000L535.000000 -31.000000C483.000000 -31.000000,458.000000 -31.000000,457.000000 -61.000000L457.000000 -252.000000C457.000000 -338.000000,457.000000 -369.000000,426.000000 -405.000000C412.000000 -422.000000,379.000000 -442.000000,321.000000 -442.000000C248.000000 -442.000000,201.000000 -399.000000,173.000000 -337.000000L173.000000 -442.000000L32.000000 -431.000000L32.000000 -400.000000C102.000000 -400.000000,110.000000 -393.000000,110.000000 -344.000000"></path>
    </g>
    <g transform="scale(0.009963,0.009963)" id="GLYPHcmr10_111">
      <path style="fill-rule: evenodd;" d="M471.000000 -214.000000C471.000000 -342.000000,371.000000 -448.000000,250.000000 -448.000000C125.000000 -448.000000,28.000000 -339.000000,28.000000 -214.000000C28.000000 -85.000000,132.000000 11.000000,249.000000 11.000000C370.000000 11.000000,471.000000 -87.000000,471.000000 -214.000000M250.000000 -14.000000C207.000000 -14.000000,163.000000 -35.000000,136.000000 -81.000000C111.000000 -125.000000,111.000000 -186.000000,111.000000 -222.000000C111.000000 -261.000000,111.000000 -315.000000,135.000000 -359.000000C162.000000 -405.000000,209.000000 -426.000000,249.000000 -426.000000C293.000000 -426.000000,336.000000 -404.000000,362.000000 -361.000000C388.000000 -318.000000,388.000000 -260.000000,388.000000 -222.000000C388.000000 -186.000000,388.000000 -132.000000,366.000000 -88.000000C344.000000 -43.000000,300.000000 -14.000000,250.000000 -14.000000"></path>
    </g>
    <g transform="scale(0.009963,0.009963)" id="GLYPHcmr10_112">
      <path style="fill-rule: evenodd;" d="M172.000000 -376.000000L172.000000 -442.000000L28.000000 -431.000000L28.000000 -400.000000C99.000000 -400.000000,106.000000 -394.000000,106.000000 -350.000000L106.000000 118.000000C106.000000 163.000000,95.000000 163.000000,28.000000 163.000000L28.000000 194.000000C62.000000 193.000000,114.000000 191.000000,140.000000 191.000000C167.000000 191.000000,218.000000 193.000000,253.000000 194.000000L253.000000 163.000000C186.000000 163.000000,175.000000 163.000000,175.000000 118.000000L175.000000 -50.000000L175.000000 -59.000000C180.000000 -43.000000,222.000000 11.000000,298.000000 11.000000C417.000000 11.000000,521.000000 -87.000000,521.000000 -216.000000C521.000000 -343.000000,424.000000 -442.000000,312.000000 -442.000000C234.000000 -442.000000,192.000000 -398.000000,172.000000 -376.000000M175.000000 -114.000000L175.000000 -337.000000C204.000000 -388.000000,253.000000 -417.000000,304.000000 -417.000000C377.000000 -417.000000,438.000000 -329.000000,438.000000 -216.000000C438.000000 -95.000000,368.000000 -11.000000,294.000000 -11.000000C254.000000 -11.000000,216.000000 -31.000000,189.000000 -72.000000C175.000000 -93.000000,175.000000 -94.000000,175.000000 -114.000000"></path>
    </g>
    <g transform="scale(0.009963,0.009963)" id="GLYPHcmr10_114">
      <path style="fill-rule: evenodd;" d="M167.000000 -332.000000L167.000000 -442.000000L28.000000 -431.000000L28.000000 -400.000000C98.000000 -400.000000,106.000000 -393.000000,106.000000 -344.000000L106.000000 -76.000000C106.000000 -31.000000,95.000000 -31.000000,28.000000 -31.000000L28.000000 -0.000000C67.000000 -1.000000,114.000000 -3.000000,142.000000 -3.000000C182.000000 -3.000000,229.000000 -3.000000,269.000000 -0.000000L269.000000 -31.000000L248.000000 -31.000000C174.000000 -31.000000,172.000000 -42.000000,172.000000 -78.000000L172.000000 -232.000000C172.000000 -331.000000,214.000000 -420.000000,290.000000 -420.000000C297.000000 -420.000000,299.000000 -420.000000,301.000000 -419.000000C298.000000 -418.000000,278.000000 -406.000000,278.000000 -380.000000C278.000000 -352.000000,299.000000 -337.000000,321.000000 -337.000000C339.000000 -337.000000,364.000000 -349.000000,364.000000 -381.000000C364.000000 -413.000000,333.000000 -442.000000,290.000000 -442.000000C217.000000 -442.000000,181.000000 -375.000000,167.000000 -332.000000"></path>
    </g>
    <g transform="scale(0.009963,0.009963)" id="GLYPHcmr10_115">
      <path style="fill-rule: evenodd;" d="M208.000000 -194.000000C230.000000 -190.000000,312.000000 -174.000000,312.000000 -102.000000C312.000000 -51.000000,277.000000 -11.000000,199.000000 -11.000000C115.000000 -11.000000,79.000000 -68.000000,60.000000 -153.000000C57.000000 -166.000000,56.000000 -170.000000,46.000000 -170.000000C33.000000 -170.000000,33.000000 -163.000000,33.000000 -145.000000L33.000000 -13.000000C33.000000 4.000000,33.000000 11.000000,44.000000 11.000000C49.000000 11.000000,50.000000 10.000000,69.000000 -9.000000C71.000000 -11.000000,71.000000 -13.000000,89.000000 -32.000000C133.000000 10.000000,178.000000 11.000000,199.000000 11.000000C314.000000 11.000000,360.000000 -56.000000,360.000000 -128.000000C360.000000 -181.000000,330.000000 -211.000000,318.000000 -223.000000C285.000000 -255.000000,246.000000 -263.000000,204.000000 -271.000000C148.000000 -282.000000,81.000000 -295.000000,81.000000 -353.000000C81.000000 -388.000000,107.000000 -429.000000,193.000000 -429.000000C303.000000 -429.000000,308.000000 -339.000000,310.000000 -308.000000C311.000000 -299.000000,320.000000 -299.000000,322.000000 -299.000000C335.000000 -299.000000,335.000000 -304.000000,335.000000 -323.000000L335.000000 -424.000000C335.000000 -441.000000,335.000000 -448.000000,324.000000 -448.000000C319.000000 -448.000000,317.000000 -448.000000,304.000000 -436.000000C301.000000 -432.000000,291.000000 -423.000000,287.000000 -420.000000C249.000000 -448.000000,208.000000 -448.000000,193.000000 -448.000000C71.000000 -448.000000,33.000000 -381.000000,33.000000 -325.000000C33.000000 -290.000000,49.000000 -262.000000,76.000000 -240.000000C108.000000 -214.000000,136.000000 -208.000000,208.000000 -194.000000"></path>
    </g>
    <g transform="scale(0.009963,0.009963)" id="GLYPHcmr10_116">
      <path style="fill-rule: evenodd;" d="M173.000000 -400.000000L316.000000 -400.000000L316.000000 -431.000000L173.000000 -431.000000L173.000000 -615.000000L148.000000 -615.000000C147.000000 -533.000000,117.000000 -426.000000,19.000000 -422.000000L19.000000 -400.000000L104.000000 -400.000000L104.000000 -124.000000C104.000000 -1.000000,197.000000 11.000000,233.000000 11.000000C304.000000 11.000000,332.000000 -60.000000,332.000000 -124.000000L332.000000 -181.000000L307.000000 -181.000000L307.000000 -126.000000C307.000000 -52.000000,277.000000 -14.000000,240.000000 -14.000000C173.000000 -14.000000,173.000000 -105.000000,173.000000 -122.000000"></path>
    </g>
    <g transform="scale(0.009963,0.009963)" id="GLYPHcmr10_117">
      <path style="fill-rule: evenodd;" d="M391.000000 -79.000000L391.000000 11.000000L535.000000 -0.000000L535.000000 -31.000000C465.000000 -31.000000,457.000000 -38.000000,457.000000 -87.000000L457.000000 -442.000000L310.000000 -431.000000L310.000000 -400.000000C380.000000 -400.000000,388.000000 -393.000000,388.000000 -344.000000L388.000000 -166.000000C388.000000 -79.000000,340.000000 -11.000000,267.000000 -11.000000C183.000000 -11.000000,179.000000 -58.000000,179.000000 -110.000000L179.000000 -442.000000L32.000000 -431.000000L32.000000 -400.000000C110.000000 -400.000000,110.000000 -397.000000,110.000000 -308.000000L110.000000 -158.000000C110.000000 -80.000000,110.000000 11.000000,262.000000 11.000000C318.000000 11.000000,362.000000 -17.000000,391.000000 -79.000000"></path>
    </g>
    <g transform="scale(0.009963,0.009963)" id="GLYPHcmsy10_0">
      <path style="fill-rule: evenodd;" d="M659.000000 -230.000000C676.000000 -230.000000,694.000000 -230.000000,694.000000 -250.000000C694.000000 -270.000000,676.000000 -270.000000,659.000000 -270.000000L118.000000 -270.000000C101.000000 -270.000000,83.000000 -270.000000,83.000000 -250.000000C83.000000 -230.000000,101.000000 -230.000000,118.000000 -230.000000"></path>
    </g>
  </defs>
  <g transform="translate(71.000000 10.000000)" style="fill: rgb(0.000000%,0.000000%,0.000000%);">
    <use xlink:href="#GLYPHcmr10_43"></use>
  </g>
  <path d="M81.977158 7.509354C81.977158 3.586594,78.797119 0.406555,74.874359 0.406555C70.951599 0.406555,67.771561 3.586594,67.771561 7.509354C67.771561 11.432114,70.951599 14.612152,74.874359 14.612152C78.797119 14.612152,81.977158 11.432114,81.977158 7.509354Z" style="stroke:rgb(0.000000%,0.000000%,0.000000%); stroke-width: 0.500000;stroke-linecap: round;stroke-linejoin: round;stroke-miterlimit: 10.000000;fill: none;"></path>
  <g transform="translate(417.073349 39.259659)" style="fill: rgb(0.000000%,0.000000%,0.000000%);">
    <use xlink:href="#GLYPHcmr10_83"></use>
    <use xlink:href="#GLYPHcmr10_101" x="5.555661"></use>
    <use xlink:href="#GLYPHcmr10_110" x="10.000190"></use>
    <use xlink:href="#GLYPHcmr10_115" x="15.555851"></use>
    <use xlink:href="#GLYPHcmr10_111" x="19.500365"></use>
    <use xlink:href="#GLYPHcmr10_114" x="24.500460"></use>
  </g>
  <path d="M414.073349 42.259659L448.383957 42.259659L448.383957 29.451859L414.073349 29.451859Z" style="stroke:rgb(0.000000%,0.000000%,0.000000%); stroke-width: 0.500000;stroke-linecap: round;stroke-linejoin: round;stroke-miterlimit: 10.000000;fill: none;"></path>
  <g transform="translate(311.335907 39.315018)" style="fill: rgb(0.000000%,0.000000%,0.000000%);">
    <use xlink:href="#GLYPHcmr10_65"></use>
    <use xlink:href="#GLYPHcmr10_99" x="7.500135"></use>
    <use xlink:href="#GLYPHcmr10_111" x="11.944663"></use>
    <use xlink:href="#GLYPHcmr10_110" x="16.944758"></use>
    <use xlink:href="#GLYPHcmr10_100" x="22.500419"></use>
    <use xlink:href="#GLYPHcmr10_105" x="28.056080"></use>
    <use xlink:href="#GLYPHcmr10_99" x="30.833910"></use>
    <use xlink:href="#GLYPHcmr10_105" x="35.278439"></use>
    <use xlink:href="#GLYPHcmr10_111" x="38.056270"></use>
    <use xlink:href="#GLYPHcmr10_110" x="43.056364"></use>
    <use xlink:href="#GLYPHcmr10_97" x="48.612025"></use>
    <use xlink:href="#GLYPHcmr10_100" x="53.612120"></use>
    <use xlink:href="#GLYPHcmr10_111" x="59.167781"></use>
    <use xlink:href="#GLYPHcmr10_114" x="64.167876"></use>
  </g>
  <path d="M308.335907 42.315018L382.165009 42.315018L382.165009 29.396500L308.335907 29.396500Z" style="stroke:rgb(0.000000%,0.000000%,0.000000%); stroke-width: 0.500000;stroke-linecap: round;stroke-linejoin: round;stroke-miterlimit: 10.000000;fill: none;"></path>
  <g transform="translate(104.819656 10.913254)" style="fill: rgb(0.000000%,0.000000%,0.000000%);">
    <use xlink:href="#GLYPHcmr10_65"></use>
    <use xlink:href="#GLYPHcmr10_68" x="7.500135"></use>
    <use xlink:href="#GLYPHcmr10_67" x="15.139157"></use>
  </g>
  <path d="M101.819641 13.913254L130.097275 13.913254L130.097275 1.105453L101.819641 1.105453Z" style="stroke:rgb(0.000000%,0.000000%,0.000000%); stroke-width: 0.500000;stroke-linecap: round;stroke-linejoin: round;stroke-miterlimit: 10.000000;fill: none;"></path>
  <g transform="translate(152.939774 10.000015)" style="fill: rgb(0.000000%,0.000000%,0.000000%);">
    <use xlink:href="#GLYPHcmr10_80"></use>
    <use xlink:href="#GLYPHcmr10_114" x="6.805681"></use>
    <use xlink:href="#GLYPHcmr10_111" x="10.722427"></use>
  </g>
  <g transform="translate(168.880081 10.000015)" style="fill: rgb(0.000000%,0.000000%,0.000000%);">
    <use xlink:href="#GLYPHcmr10_99"></use>
    <use xlink:href="#GLYPHcmr10_101" x="4.444529"></use>
    <use xlink:href="#GLYPHcmr10_115" x="8.889057"></use>
    <use xlink:href="#GLYPHcmr10_97" x="12.833572"></use>
    <use xlink:href="#GLYPHcmr10_100" x="17.833667"></use>
    <use xlink:href="#GLYPHcmr10_111" x="23.389328"></use>
    <use xlink:href="#GLYPHcmr10_114" x="28.389423"></use>
  </g>
  <g transform="translate(204.385880 10.000015)" style="fill: rgb(0.000000%,0.000000%,0.000000%);">
    <use xlink:href="#GLYPHcmr10_100"></use>
    <use xlink:href="#GLYPHcmr10_105" x="5.555661"></use>
    <use xlink:href="#GLYPHcmr10_103" x="8.333491"></use>
    <use xlink:href="#GLYPHcmr10_105" x="13.333586"></use>
    <use xlink:href="#GLYPHcmr10_116" x="16.111417"></use>
    <use xlink:href="#GLYPHcmr10_97" x="20.000379"></use>
    <use xlink:href="#GLYPHcmr10_108" x="25.000474"></use>
  </g>
  <path d="M149.939758 14.937210L235.059891 14.937210L235.059891 0.081497L149.939758 0.081497Z" style="stroke:rgb(0.000000%,0.000000%,0.000000%); stroke-width: 0.500000;stroke-linecap: round;stroke-linejoin: round;stroke-miterlimit: 10.000000;fill: none;"></path>
  <g transform="translate(257.902390 10.913254)" style="fill: rgb(0.000000%,0.000000%,0.000000%);">
    <use xlink:href="#GLYPHcmr10_68"></use>
  </g>
  <g transform="translate(265.235992 10.913254)" style="fill: rgb(0.000000%,0.000000%,0.000000%);">
    <use xlink:href="#GLYPHcmr10_65"></use>
  </g>
  <g transform="translate(272.431290 10.913254)" style="fill: rgb(0.000000%,0.000000%,0.000000%);">
    <use xlink:href="#GLYPHcmr10_67"></use>
  </g>
  <path d="M254.902374 13.913254L282.626511 13.913254L282.626511 1.105453L254.902374 1.105453Z" style="stroke:rgb(0.000000%,0.000000%,0.000000%); stroke-width: 0.500000;stroke-linecap: round;stroke-linejoin: round;stroke-miterlimit: 10.000000;fill: none;"></path>
  <g transform="translate(305.469009 10.000015)" style="fill: rgb(0.000000%,0.000000%,0.000000%);">
    <use xlink:href="#GLYPHcmr10_69"></use>
    <use xlink:href="#GLYPHcmr10_116" x="6.805681"></use>
    <use xlink:href="#GLYPHcmr10_97" x="10.694643"></use>
    <use xlink:href="#GLYPHcmr10_112" x="15.694738"></use>
    <use xlink:href="#GLYPHcmr10_97" x="21.250399"></use>
  </g>
  <g transform="translate(334.941910 10.000015)" style="fill: rgb(0.000000%,0.000000%,0.000000%);">
    <use xlink:href="#GLYPHcmr10_100"></use>
    <use xlink:href="#GLYPHcmr10_101" x="5.555661"></use>
  </g>
  <g transform="translate(348.225403 10.000015)" style="fill: rgb(0.000000%,0.000000%,0.000000%);">
    <use xlink:href="#GLYPHcmr10_112"></use>
  </g>
  <g transform="translate(354.037003 10.000015)" style="fill: rgb(0.000000%,0.000000%,0.000000%);">
    <use xlink:href="#GLYPHcmr10_111"></use>
    <use xlink:href="#GLYPHcmr10_116" x="5.000095"></use>
    <use xlink:href="#GLYPHcmr10_101" x="8.889057"></use>
    <use xlink:href="#GLYPHcmr10_110" x="13.333586"></use>
    <use xlink:href="#GLYPHcmr10_99" x="18.889247"></use>
    <use xlink:href="#GLYPHcmr10_105" x="23.333776"></use>
    <use xlink:href="#GLYPHcmr10_97" x="26.111606"></use>
  </g>
  <path d="M302.468994 14.937210L388.031906 14.937210L388.031906 0.081497L302.468994 0.081497Z" style="stroke:rgb(0.000000%,0.000000%,0.000000%); stroke-width: 0.500000;stroke-linecap: round;stroke-linejoin: round;stroke-miterlimit: 10.000000;fill: none;"></path>
  <g transform="translate(410.874405 10.968613)" style="fill: rgb(0.000000%,0.000000%,0.000000%);">
    <use xlink:href="#GLYPHcmr10_65"></use>
    <use xlink:href="#GLYPHcmr10_99" x="7.500135"></use>
    <use xlink:href="#GLYPHcmr10_116" x="11.944663"></use>
    <use xlink:href="#GLYPHcmr10_117" x="15.833626"></use>
    <use xlink:href="#GLYPHcmr10_97" x="21.389287"></use>
    <use xlink:href="#GLYPHcmr10_100" x="26.389382"></use>
    <use xlink:href="#GLYPHcmr10_111" x="31.945043"></use>
    <use xlink:href="#GLYPHcmr10_114" x="36.945137"></use>
  </g>
  <path d="M407.874390 13.968613L454.582901 13.968613L454.582901 1.050095L407.874390 1.050095Z" style="stroke:rgb(0.000000%,0.000000%,0.000000%); stroke-width: 0.500000;stroke-linecap: round;stroke-linejoin: round;stroke-miterlimit: 10.000000;fill: none;"></path>
  <g transform="translate(477.425400 10.968613)" style="fill: rgb(0.000000%,0.000000%,0.000000%);">
    <use xlink:href="#GLYPHcmr10_80"></use>
    <use xlink:href="#GLYPHcmr10_108" x="6.805681"></use>
    <use xlink:href="#GLYPHcmr10_97" x="9.583511"></use>
    <use xlink:href="#GLYPHcmr10_110" x="14.583606"></use>
  </g>
  <g transform="translate(497.212402 10.968613)" style="fill: rgb(0.000000%,0.000000%,0.000000%);">
    <use xlink:href="#GLYPHcmr10_116"></use>
    <use xlink:href="#GLYPHcmr10_97" x="3.888963"></use>
  </g>
  <path d="M474.425385 13.968613L509.068100 13.968613L509.068100 1.050095L474.425385 1.050095Z" style="stroke:rgb(0.000000%,0.000000%,0.000000%); stroke-width: 0.500000;stroke-linecap: round;stroke-linejoin: round;stroke-miterlimit: 10.000000;fill: none;"></path>
  <g transform="translate(109.593414 38.650864)" style="fill: rgb(0.000000%,0.000000%,0.000000%);">
    <use xlink:href="#GLYPHcmsy10_0"></use>
  </g>
  <g transform="translate(117.342117 38.650864)" style="fill: rgb(0.000000%,0.000000%,0.000000%);">
    <use xlink:href="#GLYPHcmr10_49"></use>
  </g>
  <path d="M106.593414 42.481064L125.323517 42.481064L125.323517 29.230453L106.593414 29.230453Z" style="stroke:rgb(0.000000%,0.000000%,0.000000%); stroke-width: 0.500000;stroke-linecap: round;stroke-linejoin: round;stroke-miterlimit: 10.000000;fill: none;"></path>
  <g transform="translate(-0.345749 10.968613)" style="fill: rgb(0.000000%,0.000000%,0.000000%);">
    <use xlink:href="#GLYPHcmr10_82"></use>
    <use xlink:href="#GLYPHcmr10_101" x="7.361232"></use>
    <use xlink:href="#GLYPHcmr10_102" x="11.805760"></use>
    <use xlink:href="#GLYPHcmr10_101" x="14.861381"></use>
    <use xlink:href="#GLYPHcmr10_114" x="19.305910"></use>
    <use xlink:href="#GLYPHcmr10_101" x="23.222656"></use>
    <use xlink:href="#GLYPHcmr10_110" x="27.667185"></use>
    <use xlink:href="#GLYPHcmr10_99" x="33.222846"></use>
    <use xlink:href="#GLYPHcmr10_105" x="37.667375"></use>
    <use xlink:href="#GLYPHcmr10_97" x="40.445205"></use>
  </g>
  <path d="M47.929077 7.509354L67.771561 7.509354" style="stroke:rgb(0.000000%,0.000000%,0.000000%); stroke-width: 0.500000;stroke-linecap: round;stroke-linejoin: round;stroke-miterlimit: 10.000000;fill: none;"></path>
  <path d="M64.076126 9.040085L67.771561 7.509354L64.076126 5.978622Z" style="stroke:rgb(0.000000%,0.000000%,0.000000%); stroke-width: 0.500000;fill: rgb(0.000000%,0.000000%,0.000000%);"></path>
  <path d="M81.977158 7.509354L101.819641 7.509354" style="stroke:rgb(0.000000%,0.000000%,0.000000%); stroke-width: 0.500000;stroke-linecap: round;stroke-linejoin: round;stroke-miterlimit: 10.000000;fill: none;"></path>
  <path d="M98.124207 9.040085L101.819641 7.509354L98.124207 5.978622Z" style="stroke:rgb(0.000000%,0.000000%,0.000000%); stroke-width: 0.500000;fill: rgb(0.000000%,0.000000%,0.000000%);"></path>
  <path d="M130.097275 7.509354L149.939758 7.509354" style="stroke:rgb(0.000000%,0.000000%,0.000000%); stroke-width: 0.500000;stroke-linecap: round;stroke-linejoin: round;stroke-miterlimit: 10.000000;fill: none;"></path>
  <path d="M146.244324 9.040085L149.939758 7.509354L146.244324 5.978622Z" style="stroke:rgb(0.000000%,0.000000%,0.000000%); stroke-width: 0.500000;fill: rgb(0.000000%,0.000000%,0.000000%);"></path>
  <path d="M235.059891 7.509354L254.902374 7.509354" style="stroke:rgb(0.000000%,0.000000%,0.000000%); stroke-width: 0.500000;stroke-linecap: round;stroke-linejoin: round;stroke-miterlimit: 10.000000;fill: none;"></path>
  <path d="M251.206940 9.040085L254.902374 7.509354L251.206940 5.978622Z" style="stroke:rgb(0.000000%,0.000000%,0.000000%); stroke-width: 0.500000;fill: rgb(0.000000%,0.000000%,0.000000%);"></path>
  <path d="M282.626511 7.509354L302.468994 7.509354" style="stroke:rgb(0.000000%,0.000000%,0.000000%); stroke-width: 0.500000;stroke-linecap: round;stroke-linejoin: round;stroke-miterlimit: 10.000000;fill: none;"></path>
  <path d="M298.773560 9.040085L302.468994 7.509354L298.773560 5.978622Z" style="stroke:rgb(0.000000%,0.000000%,0.000000%); stroke-width: 0.500000;fill: rgb(0.000000%,0.000000%,0.000000%);"></path>
  <path d="M388.031906 7.509354L407.874390 7.509354" style="stroke:rgb(0.000000%,0.000000%,0.000000%); stroke-width: 0.500000;stroke-linecap: round;stroke-linejoin: round;stroke-miterlimit: 10.000000;fill: none;"></path>
  <path d="M404.178955 9.040085L407.874390 7.509354L404.178955 5.978622Z" style="stroke:rgb(0.000000%,0.000000%,0.000000%); stroke-width: 0.500000;fill: rgb(0.000000%,0.000000%,0.000000%);"></path>
  <path d="M454.582901 7.509354L474.425385 7.509354" style="stroke:rgb(0.000000%,0.000000%,0.000000%); stroke-width: 0.500000;stroke-linecap: round;stroke-linejoin: round;stroke-miterlimit: 10.000000;fill: none;"></path>
  <path d="M470.729950 9.040085L474.425385 7.509354L470.729950 5.978622Z" style="stroke:rgb(0.000000%,0.000000%,0.000000%); stroke-width: 0.500000;fill: rgb(0.000000%,0.000000%,0.000000%);"></path>
  <path d="M491.746750 13.968613L491.746750 35.855759L448.383957 35.855759" style="stroke:rgb(0.000000%,0.000000%,0.000000%); stroke-width: 0.500000;stroke-linecap: round;stroke-linejoin: round;stroke-miterlimit: 10.000000;fill: none;"></path>
  <path d="M452.079224 34.325089L448.383957 35.855759L452.079224 37.386429Z" style="stroke:rgb(0.000000%,0.000000%,0.000000%); stroke-width: 0.500000;fill: rgb(0.000000%,0.000000%,0.000000%);"></path>
  <path d="M414.073349 35.855759L382.165009 35.855759" style="stroke:rgb(0.000000%,0.000000%,0.000000%); stroke-width: 0.500000;stroke-linecap: round;stroke-linejoin: round;stroke-miterlimit: 10.000000;fill: none;"></path>
  <path d="M385.860703 34.324921L382.165009 35.855759L385.860703 37.386597Z" style="stroke:rgb(0.000000%,0.000000%,0.000000%); stroke-width: 0.500000;fill: rgb(0.000000%,0.000000%,0.000000%);"></path>
  <path d="M308.335907 35.855759L125.323517 35.855759" style="stroke:rgb(0.000000%,0.000000%,0.000000%); stroke-width: 0.500000;stroke-linecap: round;stroke-linejoin: round;stroke-miterlimit: 10.000000;fill: none;"></path>
  <path d="M129.018021 34.325409L125.323517 35.855759L129.018021 37.386108Z" style="stroke:rgb(0.000000%,0.000000%,0.000000%); stroke-width: 0.500000;fill: rgb(0.000000%,0.000000%,0.000000%);"></path>
  <path d="M106.593414 35.855759L74.874359 35.855759L74.874359 14.612152" style="stroke:rgb(0.000000%,0.000000%,0.000000%); stroke-width: 0.500000;stroke-linecap: round;stroke-linejoin: round;stroke-miterlimit: 10.000000;fill: none;"></path>
  <path d="M76.405136 18.307678L74.874359 14.612152L73.343582 18.307678Z" style="stroke:rgb(0.000000%,0.000000%,0.000000%); stroke-width: 0.500000;fill: rgb(0.000000%,0.000000%,0.000000%);"></path>
</svg>
