<?xml version="1.0" encoding="UTF-8" standalone="no"?>
<!DOCTYPE svg PUBLIC "-//W3C//DTD SVG 1.1//EN"
 "http://www.w3.org/Graphics/SVG/1.1/DTD/svg11.dtd">
<!-- Generated by graphviz version 2.43.0 (0)
 -->
<!-- Title: G Pages: 1 -->
<svg width="410pt" height="91pt"
 viewBox="0.00 0.00 409.70 91.00" xmlns="http://www.w3.org/2000/svg" xmlns:xlink="http://www.w3.org/1999/xlink">
<g id="graph0" class="graph" transform="scale(1 1) rotate(0) translate(4 87)">
<title>G</title>
<polygon fill="white" stroke="transparent" points="-4,4 -4,-87 405.7,-87 405.7,4 -4,4"/>
<!-- ref -->
<g id="node1" class="node">
<title>ref</title>
<text text-anchor="middle" x="27" y="-37.8" font-family="Times,serif" font-size="14.00">ref</text>
</g>
<!-- sum -->
<g id="node2" class="node">
<title>sum</title>
<ellipse fill="none" stroke="black" cx="108.85" cy="-41.5" rx="18.7" ry="18.7"/>
<text text-anchor="middle" x="108.85" y="-37.8" font-family="Times,serif" font-size="14.00">+</text>
</g>
<!-- ref&#45;&gt;sum -->
<g id="edge1" class="edge">
<title>ref&#45;&gt;sum</title>
<path fill="none" stroke="black" d="M54.15,-41.5C62.33,-41.5 71.4,-41.5 79.72,-41.5"/>
<polygon fill="black" stroke="black" points="79.73,-45 89.73,-41.5 79.73,-38 79.73,-45"/>
</g>
<!-- PI -->
<g id="node4" class="node">
<title>PI</title>
<polygon fill="none" stroke="black" points="217.7,-59.5 163.7,-59.5 163.7,-23.5 217.7,-23.5 217.7,-59.5"/>
<text text-anchor="middle" x="190.7" y="-37.8" font-family="Times,serif" font-size="14.00">PI</text>
</g>
<!-- sum&#45;&gt;PI -->
<g id="edge2" class="edge">
<title>sum&#45;&gt;PI</title>
<path fill="none" stroke="black" d="M127.97,-41.5C135.51,-41.5 144.54,-41.5 153.35,-41.5"/>
<polygon fill="black" stroke="black" points="153.47,-45 163.47,-41.5 153.47,-38 153.47,-45"/>
</g>
<!-- motor -->
<g id="node3" class="node">
<title>motor</title>
<polygon fill="none" stroke="black" points="401.7,-83 253.7,-83 253.7,0 401.7,0 401.7,-83"/>
<image xlink:href="CodeCogsEqn-motor-torque.png" width="148px" height="83px" preserveAspectRatio="xMinYMin meet" x="253.697" y="-83"/>
<text text-anchor="middle" x="327.7" y="-37.8" font-family="Times,serif" font-size="14.00">motor</text>
</g>
<!-- PI&#45;&gt;motor -->
<g id="edge3" class="edge">
<title>PI&#45;&gt;motor</title>
<path fill="none" stroke="black" d="M217.73,-41.5C225.38,-41.5 234.19,-41.5 243.42,-41.5"/>
<polygon fill="black" stroke="black" points="243.57,-45 253.57,-41.5 243.57,-38 243.57,-45"/>
</g>
</g>
</svg>
