<?xml version="1.0"?>
<!-- Created by MetaPost 2.00 on 2021.06.10:0952 -->
<svg version="1.1" xmlns="http://www.w3.org/2000/svg" xmlns:xlink="http://www.w3.org/1999/xlink" width="353.781586" height="44.419586" viewBox="0 0 353.781586 44.419586">
<!-- Original BoundingBox: -37.041321 -32.509659 316.740265 11.909927 -->
  <defs>
    <g transform="scale(0.009963,0.009963)" id="GLYPHcmr10_43">
      <path style="fill-rule: evenodd;" d="M409.000000 -230.000000L688.000000 -230.000000C702.000000 -230.000000,721.000000 -230.000000,721.000000 -250.000000C721.000000 -270.000000,702.000000 -270.000000,688.000000 -270.000000L409.000000 -270.000000L409.000000 -550.000000C409.000000 -564.000000,409.000000 -583.000000,389.000000 -583.000000C369.000000 -583.000000,369.000000 -564.000000,369.000000 -550.000000L369.000000 -270.000000L89.000000 -270.000000C75.000000 -270.000000,56.000000 -270.000000,56.000000 -250.000000C56.000000 -230.000000,75.000000 -230.000000,89.000000 -230.000000L369.000000 -230.000000L369.000000 50.000000C369.000000 64.000000,369.000000 83.000000,389.000000 83.000000C409.000000 83.000000,409.000000 64.000000,409.000000 50.000000"></path>
    </g>
    <g transform="scale(0.009963,0.009963)" id="GLYPHcmr10_45">
      <path style="fill-rule: evenodd;" d="M276.000000 -187.000000L276.000000 -245.000000L11.000000 -245.000000L11.000000 -187.000000"></path>
    </g>
    <g transform="scale(0.009963,0.009963)" id="GLYPHcmr10_49">
      <path style="fill-rule: evenodd;" d="M294.000000 -640.000000C294.000000 -664.000000,294.000000 -666.000000,271.000000 -666.000000C209.000000 -602.000000,121.000000 -602.000000,89.000000 -602.000000L89.000000 -571.000000C109.000000 -571.000000,168.000000 -571.000000,220.000000 -597.000000L220.000000 -79.000000C220.000000 -43.000000,217.000000 -31.000000,127.000000 -31.000000L95.000000 -31.000000L95.000000 -0.000000C130.000000 -3.000000,217.000000 -3.000000,257.000000 -3.000000C297.000000 -3.000000,384.000000 -3.000000,419.000000 -0.000000L419.000000 -31.000000L387.000000 -31.000000C297.000000 -31.000000,294.000000 -42.000000,294.000000 -79.000000"></path>
    </g>
    <g transform="scale(0.009963,0.009963)" id="GLYPHcmr10_67">
      <path style="fill-rule: evenodd;" d="M56.000000 -342.000000C56.000000 -135.000000,218.000000 22.000000,404.000000 22.000000C567.000000 22.000000,665.000000 -117.000000,665.000000 -233.000000C665.000000 -243.000000,665.000000 -250.000000,652.000000 -250.000000C641.000000 -250.000000,641.000000 -244.000000,640.000000 -234.000000C632.000000 -91.000000,525.000000 -9.000000,416.000000 -9.000000C355.000000 -9.000000,159.000000 -43.000000,159.000000 -341.000000C159.000000 -640.000000,354.000000 -674.000000,415.000000 -674.000000C524.000000 -674.000000,613.000000 -583.000000,633.000000 -437.000000C635.000000 -423.000000,635.000000 -420.000000,649.000000 -420.000000C665.000000 -420.000000,665.000000 -423.000000,665.000000 -444.000000L665.000000 -681.000000C665.000000 -698.000000,665.000000 -705.000000,654.000000 -705.000000C650.000000 -705.000000,646.000000 -705.000000,638.000000 -693.000000L588.000000 -619.000000C551.000000 -655.000000,500.000000 -705.000000,404.000000 -705.000000C217.000000 -705.000000,56.000000 -546.000000,56.000000 -342.000000"></path>
    </g>
    <g transform="scale(0.009963,0.009963)" id="GLYPHcmr10_68">
      <path style="fill-rule: evenodd;" d="M35.000000 -683.000000L35.000000 -652.000000L59.000000 -652.000000C136.000000 -652.000000,138.000000 -641.000000,138.000000 -605.000000L138.000000 -78.000000C138.000000 -42.000000,136.000000 -31.000000,59.000000 -31.000000L35.000000 -31.000000L35.000000 -0.000000L401.000000 -0.000000C569.000000 -0.000000,707.000000 -148.000000,707.000000 -336.000000C707.000000 -526.000000,572.000000 -683.000000,401.000000 -683.000000M273.000000 -31.000000C226.000000 -31.000000,224.000000 -38.000000,224.000000 -71.000000L224.000000 -612.000000C224.000000 -645.000000,226.000000 -652.000000,273.000000 -652.000000L373.000000 -652.000000C435.000000 -652.000000,504.000000 -630.000000,555.000000 -559.000000C598.000000 -500.000000,607.000000 -414.000000,607.000000 -336.000000C607.000000 -225.000000,588.000000 -165.000000,552.000000 -116.000000C532.000000 -89.000000,475.000000 -31.000000,374.000000 -31.000000"></path>
    </g>
    <g transform="scale(0.009963,0.009963)" id="GLYPHcmr10_70">
      <path style="fill-rule: evenodd;" d="M582.000000 -680.000000L33.000000 -680.000000L33.000000 -649.000000L57.000000 -649.000000C134.000000 -649.000000,136.000000 -638.000000,136.000000 -602.000000L136.000000 -78.000000C136.000000 -42.000000,134.000000 -31.000000,57.000000 -31.000000L33.000000 -31.000000L33.000000 -0.000000C68.000000 -3.000000,146.000000 -3.000000,185.000000 -3.000000C226.000000 -3.000000,317.000000 -3.000000,353.000000 -0.000000L353.000000 -31.000000L320.000000 -31.000000C225.000000 -31.000000,225.000000 -44.000000,225.000000 -79.000000L225.000000 -325.000000L311.000000 -325.000000C407.000000 -325.000000,417.000000 -293.000000,417.000000 -208.000000L442.000000 -208.000000L442.000000 -473.000000L417.000000 -473.000000C417.000000 -389.000000,407.000000 -356.000000,311.000000 -356.000000L225.000000 -356.000000L225.000000 -609.000000C225.000000 -642.000000,227.000000 -649.000000,274.000000 -649.000000L394.000000 -649.000000C544.000000 -649.000000,569.000000 -593.000000,585.000000 -455.000000L610.000000 -455.000000"></path>
    </g>
    <g transform="scale(0.009963,0.009963)" id="GLYPHcmr10_76">
      <path style="fill-rule: evenodd;" d="M582.000000 -258.000000L557.000000 -258.000000C546.000000 -156.000000,532.000000 -31.000000,356.000000 -31.000000L274.000000 -31.000000C227.000000 -31.000000,225.000000 -38.000000,225.000000 -71.000000L225.000000 -604.000000C225.000000 -638.000000,225.000000 -652.000000,320.000000 -652.000000L353.000000 -652.000000L353.000000 -683.000000C317.000000 -680.000000,226.000000 -680.000000,185.000000 -680.000000C146.000000 -680.000000,68.000000 -680.000000,33.000000 -683.000000L33.000000 -652.000000L57.000000 -652.000000C134.000000 -652.000000,136.000000 -641.000000,136.000000 -605.000000L136.000000 -78.000000C136.000000 -42.000000,134.000000 -31.000000,57.000000 -31.000000L33.000000 -31.000000L33.000000 -0.000000L554.000000 -0.000000"></path>
    </g>
    <g transform="scale(0.009963,0.009963)" id="GLYPHcmr10_77">
      <path style="fill-rule: evenodd;" d="M241.000000 -661.000000C232.000000 -683.000000,229.000000 -683.000000,206.000000 -683.000000L37.000000 -683.000000L37.000000 -652.000000L61.000000 -652.000000C138.000000 -652.000000,140.000000 -641.000000,140.000000 -605.000000L140.000000 -105.000000C140.000000 -78.000000,140.000000 -31.000000,37.000000 -31.000000L37.000000 -0.000000C72.000000 -1.000000,121.000000 -3.000000,154.000000 -3.000000C187.000000 -3.000000,236.000000 -1.000000,271.000000 -0.000000L271.000000 -31.000000C168.000000 -31.000000,168.000000 -78.000000,168.000000 -105.000000L168.000000 -644.000000L169.000000 -644.000000L410.000000 -22.000000C415.000000 -9.000000,420.000000 -0.000000,430.000000 -0.000000C441.000000 -0.000000,444.000000 -8.000000,448.000000 -19.000000L694.000000 -652.000000L695.000000 -652.000000L695.000000 -78.000000C695.000000 -42.000000,693.000000 -31.000000,616.000000 -31.000000L592.000000 -31.000000L592.000000 -0.000000C629.000000 -3.000000,697.000000 -3.000000,736.000000 -3.000000C775.000000 -3.000000,842.000000 -3.000000,879.000000 -0.000000L879.000000 -31.000000L855.000000 -31.000000C778.000000 -31.000000,776.000000 -42.000000,776.000000 -78.000000L776.000000 -605.000000C776.000000 -641.000000,778.000000 -652.000000,855.000000 -652.000000L879.000000 -652.000000L879.000000 -683.000000L710.000000 -683.000000C684.000000 -683.000000,684.000000 -682.000000,677.000000 -664.000000L458.000000 -101.000000"></path>
    </g>
    <g transform="scale(0.009963,0.009963)" id="GLYPHcmr10_83">
      <path style="fill-rule: evenodd;" d="M349.000000 -388.000000L221.000000 -419.000000C159.000000 -434.000000,120.000000 -488.000000,120.000000 -546.000000C120.000000 -616.000000,174.000000 -677.000000,252.000000 -677.000000C419.000000 -677.000000,441.000000 -513.000000,447.000000 -468.000000C448.000000 -462.000000,448.000000 -456.000000,459.000000 -456.000000C472.000000 -456.000000,472.000000 -461.000000,472.000000 -480.000000L472.000000 -681.000000C472.000000 -698.000000,472.000000 -705.000000,461.000000 -705.000000C454.000000 -705.000000,453.000000 -704.000000,446.000000 -692.000000L411.000000 -635.000000C381.000000 -664.000000,340.000000 -705.000000,251.000000 -705.000000C140.000000 -705.000000,56.000000 -617.000000,56.000000 -511.000000C56.000000 -428.000000,109.000000 -355.000000,187.000000 -328.000000C198.000000 -324.000000,249.000000 -312.000000,319.000000 -295.000000C346.000000 -288.000000,376.000000 -281.000000,404.000000 -244.000000C425.000000 -218.000000,435.000000 -185.000000,435.000000 -152.000000C435.000000 -81.000000,385.000000 -9.000000,301.000000 -9.000000C272.000000 -9.000000,196.000000 -14.000000,143.000000 -63.000000C85.000000 -117.000000,82.000000 -181.000000,81.000000 -217.000000C80.000000 -227.000000,72.000000 -227.000000,69.000000 -227.000000C56.000000 -227.000000,56.000000 -220.000000,56.000000 -202.000000L56.000000 -2.000000C56.000000 15.000000,56.000000 22.000000,67.000000 22.000000C74.000000 22.000000,75.000000 20.000000,82.000000 9.000000C82.000000 8.000000,85.000000 5.000000,118.000000 -48.000000C149.000000 -14.000000,213.000000 22.000000,302.000000 22.000000C419.000000 22.000000,499.000000 -76.000000,499.000000 -186.000000C499.000000 -286.000000,433.000000 -368.000000,349.000000 -388.000000"></path>
    </g>
    <g transform="scale(0.009963,0.009963)" id="GLYPHcmr10_86">
      <path style="fill-rule: evenodd;" d="M621.000000 -585.000000C635.000000 -622.000000,662.000000 -651.000000,730.000000 -652.000000L730.000000 -683.000000C699.000000 -681.000000,659.000000 -680.000000,633.000000 -680.000000C603.000000 -680.000000,545.000000 -682.000000,519.000000 -683.000000L519.000000 -652.000000C571.000000 -651.000000,592.000000 -625.000000,592.000000 -602.000000C592.000000 -594.000000,589.000000 -588.000000,587.000000 -582.000000L404.000000 -100.000000L213.000000 -605.000000C207.000000 -619.000000,207.000000 -621.000000,207.000000 -623.000000C207.000000 -652.000000,264.000000 -652.000000,289.000000 -652.000000L289.000000 -683.000000C253.000000 -680.000000,184.000000 -680.000000,146.000000 -680.000000C98.000000 -680.000000,55.000000 -682.000000,19.000000 -683.000000L19.000000 -652.000000C84.000000 -652.000000,103.000000 -652.000000,117.000000 -614.000000L349.000000 -0.000000C356.000000 19.000000,361.000000 22.000000,374.000000 22.000000C391.000000 22.000000,393.000000 17.000000,398.000000 3.000000"></path>
    </g>
    <g transform="scale(0.009963,0.009963)" id="GLYPHcmr10_97">
      <path style="fill-rule: evenodd;" d="M333.000000 -76.000000C337.000000 -36.000000,364.000000 6.000000,411.000000 6.000000C432.000000 6.000000,493.000000 -8.000000,493.000000 -89.000000L493.000000 -145.000000L468.000000 -145.000000L468.000000 -89.000000C468.000000 -31.000000,443.000000 -25.000000,432.000000 -25.000000C399.000000 -25.000000,395.000000 -70.000000,395.000000 -75.000000L395.000000 -275.000000C395.000000 -317.000000,395.000000 -356.000000,359.000000 -393.000000C320.000000 -432.000000,270.000000 -448.000000,222.000000 -448.000000C140.000000 -448.000000,71.000000 -401.000000,71.000000 -335.000000C71.000000 -305.000000,91.000000 -288.000000,117.000000 -288.000000C145.000000 -288.000000,163.000000 -308.000000,163.000000 -334.000000C163.000000 -346.000000,158.000000 -379.000000,112.000000 -380.000000C139.000000 -415.000000,188.000000 -426.000000,220.000000 -426.000000C269.000000 -426.000000,326.000000 -387.000000,326.000000 -298.000000L326.000000 -261.000000C275.000000 -258.000000,205.000000 -255.000000,142.000000 -225.000000C67.000000 -191.000000,42.000000 -139.000000,42.000000 -95.000000C42.000000 -14.000000,139.000000 11.000000,202.000000 11.000000C268.000000 11.000000,314.000000 -29.000000,333.000000 -76.000000M326.000000 -240.000000L326.000000 -140.000000C326.000000 -45.000000,254.000000 -11.000000,209.000000 -11.000000C160.000000 -11.000000,119.000000 -46.000000,119.000000 -96.000000C119.000000 -151.000000,161.000000 -234.000000,326.000000 -240.000000"></path>
    </g>
    <g transform="scale(0.009963,0.009963)" id="GLYPHcmr10_100">
      <path style="fill-rule: evenodd;" d="M380.000000 -55.000000L380.000000 11.000000L527.000000 -0.000000L527.000000 -31.000000C457.000000 -31.000000,449.000000 -38.000000,449.000000 -87.000000L449.000000 -694.000000L305.000000 -683.000000L305.000000 -652.000000C375.000000 -652.000000,383.000000 -645.000000,383.000000 -596.000000L383.000000 -380.000000C354.000000 -416.000000,311.000000 -442.000000,257.000000 -442.000000C139.000000 -442.000000,34.000000 -344.000000,34.000000 -215.000000C34.000000 -88.000000,132.000000 11.000000,246.000000 11.000000C310.000000 11.000000,355.000000 -23.000000,380.000000 -55.000000M380.000000 -323.000000L380.000000 -118.000000C380.000000 -100.000000,380.000000 -98.000000,369.000000 -81.000000C339.000000 -33.000000,294.000000 -11.000000,251.000000 -11.000000C206.000000 -11.000000,170.000000 -37.000000,146.000000 -75.000000C120.000000 -116.000000,117.000000 -173.000000,117.000000 -214.000000C117.000000 -251.000000,119.000000 -311.000000,148.000000 -356.000000C169.000000 -387.000000,207.000000 -420.000000,261.000000 -420.000000C296.000000 -420.000000,338.000000 -405.000000,369.000000 -360.000000C380.000000 -343.000000,380.000000 -341.000000,380.000000 -323.000000"></path>
    </g>
    <g transform="scale(0.009963,0.009963)" id="GLYPHcmr10_101">
      <path style="fill-rule: evenodd;" d="M112.000000 -252.000000C118.000000 -401.000000,202.000000 -426.000000,236.000000 -426.000000C339.000000 -426.000000,349.000000 -291.000000,349.000000 -252.000000M111.000000 -231.000000L390.000000 -231.000000C412.000000 -231.000000,415.000000 -231.000000,415.000000 -252.000000C415.000000 -351.000000,361.000000 -448.000000,236.000000 -448.000000C120.000000 -448.000000,28.000000 -345.000000,28.000000 -220.000000C28.000000 -86.000000,133.000000 11.000000,248.000000 11.000000C370.000000 11.000000,415.000000 -100.000000,415.000000 -119.000000C415.000000 -129.000000,407.000000 -131.000000,402.000000 -131.000000C393.000000 -131.000000,391.000000 -125.000000,389.000000 -117.000000C354.000000 -14.000000,264.000000 -14.000000,254.000000 -14.000000C204.000000 -14.000000,164.000000 -44.000000,141.000000 -81.000000C111.000000 -129.000000,111.000000 -195.000000,111.000000 -231.000000"></path>
    </g>
    <g transform="scale(0.009963,0.009963)" id="GLYPHcmr10_105">
      <path style="fill-rule: evenodd;" d="M177.000000 -442.000000L37.000000 -431.000000L37.000000 -400.000000C102.000000 -400.000000,111.000000 -394.000000,111.000000 -345.000000L111.000000 -76.000000C111.000000 -31.000000,100.000000 -31.000000,33.000000 -31.000000L33.000000 -0.000000C65.000000 -1.000000,119.000000 -3.000000,143.000000 -3.000000C178.000000 -3.000000,213.000000 -1.000000,247.000000 -0.000000L247.000000 -31.000000C181.000000 -31.000000,177.000000 -36.000000,177.000000 -75.000000M181.000000 -616.000000C181.000000 -648.000000,156.000000 -669.000000,128.000000 -669.000000C97.000000 -669.000000,75.000000 -642.000000,75.000000 -616.000000C75.000000 -589.000000,97.000000 -563.000000,128.000000 -563.000000C156.000000 -563.000000,181.000000 -584.000000,181.000000 -616.000000"></path>
    </g>
    <g transform="scale(0.009963,0.009963)" id="GLYPHcmr10_108">
      <path style="fill-rule: evenodd;" d="M177.000000 -694.000000L33.000000 -683.000000L33.000000 -652.000000C103.000000 -652.000000,111.000000 -645.000000,111.000000 -596.000000L111.000000 -76.000000C111.000000 -31.000000,100.000000 -31.000000,33.000000 -31.000000L33.000000 -0.000000C66.000000 -1.000000,119.000000 -3.000000,144.000000 -3.000000C169.000000 -3.000000,218.000000 -1.000000,255.000000 -0.000000L255.000000 -31.000000C188.000000 -31.000000,177.000000 -31.000000,177.000000 -76.000000"></path>
    </g>
    <g transform="scale(0.009963,0.009963)" id="GLYPHcmr10_109">
      <path style="fill-rule: evenodd;" d="M110.000000 -344.000000L110.000000 -76.000000C110.000000 -31.000000,99.000000 -31.000000,32.000000 -31.000000L32.000000 -0.000000C67.000000 -1.000000,118.000000 -3.000000,145.000000 -3.000000C171.000000 -3.000000,223.000000 -1.000000,257.000000 -0.000000L257.000000 -31.000000C190.000000 -31.000000,179.000000 -31.000000,179.000000 -76.000000L179.000000 -260.000000C179.000000 -364.000000,250.000000 -420.000000,314.000000 -420.000000C377.000000 -420.000000,388.000000 -366.000000,388.000000 -309.000000L388.000000 -76.000000C388.000000 -31.000000,377.000000 -31.000000,310.000000 -31.000000L310.000000 -0.000000C345.000000 -1.000000,396.000000 -3.000000,423.000000 -3.000000C449.000000 -3.000000,501.000000 -1.000000,535.000000 -0.000000L535.000000 -31.000000C468.000000 -31.000000,457.000000 -31.000000,457.000000 -76.000000L457.000000 -260.000000C457.000000 -364.000000,528.000000 -420.000000,592.000000 -420.000000C655.000000 -420.000000,666.000000 -366.000000,666.000000 -309.000000L666.000000 -76.000000C666.000000 -31.000000,655.000000 -31.000000,588.000000 -31.000000L588.000000 -0.000000C623.000000 -1.000000,674.000000 -3.000000,701.000000 -3.000000C727.000000 -3.000000,779.000000 -1.000000,813.000000 -0.000000L813.000000 -31.000000C761.000000 -31.000000,736.000000 -31.000000,735.000000 -61.000000L735.000000 -252.000000C735.000000 -338.000000,735.000000 -369.000000,704.000000 -405.000000C690.000000 -422.000000,657.000000 -442.000000,599.000000 -442.000000C515.000000 -442.000000,471.000000 -382.000000,454.000000 -344.000000C440.000000 -431.000000,366.000000 -442.000000,321.000000 -442.000000C248.000000 -442.000000,201.000000 -399.000000,173.000000 -337.000000L173.000000 -442.000000L32.000000 -431.000000L32.000000 -400.000000C102.000000 -400.000000,110.000000 -393.000000,110.000000 -344.000000"></path>
    </g>
    <g transform="scale(0.009963,0.009963)" id="GLYPHcmr10_110">
      <path style="fill-rule: evenodd;" d="M110.000000 -344.000000L110.000000 -76.000000C110.000000 -31.000000,99.000000 -31.000000,32.000000 -31.000000L32.000000 -0.000000C67.000000 -1.000000,118.000000 -3.000000,145.000000 -3.000000C171.000000 -3.000000,223.000000 -1.000000,257.000000 -0.000000L257.000000 -31.000000C190.000000 -31.000000,179.000000 -31.000000,179.000000 -76.000000L179.000000 -260.000000C179.000000 -364.000000,250.000000 -420.000000,314.000000 -420.000000C377.000000 -420.000000,388.000000 -366.000000,388.000000 -309.000000L388.000000 -76.000000C388.000000 -31.000000,377.000000 -31.000000,310.000000 -31.000000L310.000000 -0.000000C345.000000 -1.000000,396.000000 -3.000000,423.000000 -3.000000C449.000000 -3.000000,501.000000 -1.000000,535.000000 -0.000000L535.000000 -31.000000C483.000000 -31.000000,458.000000 -31.000000,457.000000 -61.000000L457.000000 -252.000000C457.000000 -338.000000,457.000000 -369.000000,426.000000 -405.000000C412.000000 -422.000000,379.000000 -442.000000,321.000000 -442.000000C248.000000 -442.000000,201.000000 -399.000000,173.000000 -337.000000L173.000000 -442.000000L32.000000 -431.000000L32.000000 -400.000000C102.000000 -400.000000,110.000000 -393.000000,110.000000 -344.000000"></path>
    </g>
    <g transform="scale(0.009963,0.009963)" id="GLYPHcmr10_111">
      <path style="fill-rule: evenodd;" d="M471.000000 -214.000000C471.000000 -342.000000,371.000000 -448.000000,250.000000 -448.000000C125.000000 -448.000000,28.000000 -339.000000,28.000000 -214.000000C28.000000 -85.000000,132.000000 11.000000,249.000000 11.000000C370.000000 11.000000,471.000000 -87.000000,471.000000 -214.000000M250.000000 -14.000000C207.000000 -14.000000,163.000000 -35.000000,136.000000 -81.000000C111.000000 -125.000000,111.000000 -186.000000,111.000000 -222.000000C111.000000 -261.000000,111.000000 -315.000000,135.000000 -359.000000C162.000000 -405.000000,209.000000 -426.000000,249.000000 -426.000000C293.000000 -426.000000,336.000000 -404.000000,362.000000 -361.000000C388.000000 -318.000000,388.000000 -260.000000,388.000000 -222.000000C388.000000 -186.000000,388.000000 -132.000000,366.000000 -88.000000C344.000000 -43.000000,300.000000 -14.000000,250.000000 -14.000000"></path>
    </g>
    <g transform="scale(0.009963,0.009963)" id="GLYPHcmr10_114">
      <path style="fill-rule: evenodd;" d="M167.000000 -332.000000L167.000000 -442.000000L28.000000 -431.000000L28.000000 -400.000000C98.000000 -400.000000,106.000000 -393.000000,106.000000 -344.000000L106.000000 -76.000000C106.000000 -31.000000,95.000000 -31.000000,28.000000 -31.000000L28.000000 -0.000000C67.000000 -1.000000,114.000000 -3.000000,142.000000 -3.000000C182.000000 -3.000000,229.000000 -3.000000,269.000000 -0.000000L269.000000 -31.000000L248.000000 -31.000000C174.000000 -31.000000,172.000000 -42.000000,172.000000 -78.000000L172.000000 -232.000000C172.000000 -331.000000,214.000000 -420.000000,290.000000 -420.000000C297.000000 -420.000000,299.000000 -420.000000,301.000000 -419.000000C298.000000 -418.000000,278.000000 -406.000000,278.000000 -380.000000C278.000000 -352.000000,299.000000 -337.000000,321.000000 -337.000000C339.000000 -337.000000,364.000000 -349.000000,364.000000 -381.000000C364.000000 -413.000000,333.000000 -442.000000,290.000000 -442.000000C217.000000 -442.000000,181.000000 -375.000000,167.000000 -332.000000"></path>
    </g>
    <g transform="scale(0.009963,0.009963)" id="GLYPHcmr10_115">
      <path style="fill-rule: evenodd;" d="M208.000000 -194.000000C230.000000 -190.000000,312.000000 -174.000000,312.000000 -102.000000C312.000000 -51.000000,277.000000 -11.000000,199.000000 -11.000000C115.000000 -11.000000,79.000000 -68.000000,60.000000 -153.000000C57.000000 -166.000000,56.000000 -170.000000,46.000000 -170.000000C33.000000 -170.000000,33.000000 -163.000000,33.000000 -145.000000L33.000000 -13.000000C33.000000 4.000000,33.000000 11.000000,44.000000 11.000000C49.000000 11.000000,50.000000 10.000000,69.000000 -9.000000C71.000000 -11.000000,71.000000 -13.000000,89.000000 -32.000000C133.000000 10.000000,178.000000 11.000000,199.000000 11.000000C314.000000 11.000000,360.000000 -56.000000,360.000000 -128.000000C360.000000 -181.000000,330.000000 -211.000000,318.000000 -223.000000C285.000000 -255.000000,246.000000 -263.000000,204.000000 -271.000000C148.000000 -282.000000,81.000000 -295.000000,81.000000 -353.000000C81.000000 -388.000000,107.000000 -429.000000,193.000000 -429.000000C303.000000 -429.000000,308.000000 -339.000000,310.000000 -308.000000C311.000000 -299.000000,320.000000 -299.000000,322.000000 -299.000000C335.000000 -299.000000,335.000000 -304.000000,335.000000 -323.000000L335.000000 -424.000000C335.000000 -441.000000,335.000000 -448.000000,324.000000 -448.000000C319.000000 -448.000000,317.000000 -448.000000,304.000000 -436.000000C301.000000 -432.000000,291.000000 -423.000000,287.000000 -420.000000C249.000000 -448.000000,208.000000 -448.000000,193.000000 -448.000000C71.000000 -448.000000,33.000000 -381.000000,33.000000 -325.000000C33.000000 -290.000000,49.000000 -262.000000,76.000000 -240.000000C108.000000 -214.000000,136.000000 -208.000000,208.000000 -194.000000"></path>
    </g>
    <g transform="scale(0.009963,0.009963)" id="GLYPHcmr10_116">
      <path style="fill-rule: evenodd;" d="M173.000000 -400.000000L316.000000 -400.000000L316.000000 -431.000000L173.000000 -431.000000L173.000000 -615.000000L148.000000 -615.000000C147.000000 -533.000000,117.000000 -426.000000,19.000000 -422.000000L19.000000 -400.000000L104.000000 -400.000000L104.000000 -124.000000C104.000000 -1.000000,197.000000 11.000000,233.000000 11.000000C304.000000 11.000000,332.000000 -60.000000,332.000000 -124.000000L332.000000 -181.000000L307.000000 -181.000000L307.000000 -126.000000C307.000000 -52.000000,277.000000 -14.000000,240.000000 -14.000000C173.000000 -14.000000,173.000000 -105.000000,173.000000 -122.000000"></path>
    </g>
    <g transform="scale(0.009963,0.009963)" id="GLYPHcmmi10_33">
      <path style="fill-rule: evenodd;" d="M605.000000 -372.000000C605.000000 -417.000000,587.000000 -442.000000,565.000000 -442.000000C539.000000 -442.000000,512.000000 -418.000000,512.000000 -395.000000C512.000000 -385.000000,517.000000 -374.000000,527.000000 -365.000000C544.000000 -350.000000,562.000000 -323.000000,562.000000 -281.000000C562.000000 -241.000000,543.000000 -184.000000,512.000000 -138.000000C482.000000 -95.000000,445.000000 -61.000000,398.000000 -61.000000C341.000000 -61.000000,310.000000 -97.000000,301.000000 -151.000000C312.000000 -177.000000,335.000000 -241.000000,335.000000 -269.000000C335.000000 -281.000000,330.000000 -291.000000,317.000000 -291.000000C309.000000 -291.000000,298.000000 -289.000000,290.000000 -274.000000C279.000000 -254.000000,267.000000 -189.000000,267.000000 -153.000000C234.000000 -106.000000,194.000000 -61.000000,131.000000 -61.000000C65.000000 -61.000000,44.000000 -120.000000,44.000000 -176.000000C44.000000 -301.000000,146.000000 -406.000000,146.000000 -419.000000C146.000000 -430.000000,138.000000 -438.000000,127.000000 -438.000000C114.000000 -438.000000,107.000000 -425.000000,101.000000 -416.000000C50.000000 -342.000000,12.000000 -223.000000,12.000000 -132.000000C12.000000 -63.000000,35.000000 11.000000,117.000000 11.000000C188.000000 11.000000,235.000000 -39.000000,271.000000 -94.000000C280.000000 -36.000000,319.000000 11.000000,381.000000 11.000000C459.000000 11.000000,507.000000 -50.000000,543.000000 -125.000000C567.000000 -174.000000,605.000000 -310.000000,605.000000 -372.000000"></path>
    </g>
    <g transform="scale(0.006974,0.006974)" id="GLYPHcmmi7_114">
      <path style="fill-rule: evenodd;" d="M235.000000 -202.000000C236.000000 -208.000000,259.000000 -298.000000,261.000000 -303.000000C263.000000 -311.000000,292.000000 -361.000000,324.000000 -385.000000C335.000000 -393.000000,362.000000 -413.000000,405.000000 -413.000000C415.000000 -413.000000,440.000000 -412.000000,460.000000 -399.000000C428.000000 -390.000000,416.000000 -362.000000,416.000000 -344.000000C416.000000 -322.000000,433.000000 -307.000000,456.000000 -307.000000C479.000000 -307.000000,512.000000 -326.000000,512.000000 -368.000000C512.000000 -420.000000,457.000000 -441.000000,406.000000 -441.000000C354.000000 -441.000000,309.000000 -420.000000,265.000000 -370.000000C247.000000 -431.000000,186.000000 -441.000000,162.000000 -441.000000C125.000000 -441.000000,100.000000 -418.000000,84.000000 -390.000000C61.000000 -351.000000,47.000000 -293.000000,47.000000 -288.000000C47.000000 -275.000000,61.000000 -275.000000,64.000000 -275.000000C78.000000 -275.000000,79.000000 -278.000000,86.000000 -305.000000C101.000000 -366.000000,120.000000 -413.000000,159.000000 -413.000000C185.000000 -413.000000,192.000000 -391.000000,192.000000 -364.000000C192.000000 -345.000000,183.000000 -308.000000,176.000000 -281.000000C169.000000 -254.000000,159.000000 -213.000000,154.000000 -191.000000L122.000000 -63.000000C118.000000 -50.000000,112.000000 -25.000000,112.000000 -22.000000C112.000000 -0.000000,130.000000 10.000000,146.000000 10.000000C161.000000 10.000000,181.000000 1.000000,189.000000 -19.000000C191.000000 -25.000000,202.000000 -69.000000,208.000000 -94.000000"></path>
    </g>
  </defs>
  <g transform="translate(37.000000 11.000000)" style="fill: rgb(0.000000%,0.000000%,0.000000%);">
    <use xlink:href="#GLYPHcmr10_43"></use>
  </g>
  <path d="M47.977158 8.509354C47.977158 4.586594,44.797119 1.406555,40.874359 1.406555C36.951599 1.406555,33.771561 4.586594,33.771561 8.509354C33.771561 12.432114,36.951599 15.612152,40.874359 15.612152C44.797119 15.612152,47.977158 12.432114,47.977158 8.509354Z" style="stroke:rgb(0.000000%,0.000000%,0.000000%); stroke-width: 0.500000;stroke-linecap: round;stroke-linejoin: round;stroke-miterlimit: 10.000000;fill: none;"></path>
  <g transform="translate(70.819656 11.968613)" style="fill: rgb(0.000000%,0.000000%,0.000000%);">
    <use xlink:href="#GLYPHcmr10_67"></use>
    <use xlink:href="#GLYPHcmr10_111" x="7.222359"></use>
    <use xlink:href="#GLYPHcmr10_110" x="12.222454"></use>
    <use xlink:href="#GLYPHcmr10_116" x="17.778115"></use>
    <use xlink:href="#GLYPHcmr10_114" x="21.667078"></use>
    <use xlink:href="#GLYPHcmr10_111" x="25.583824"></use>
    <use xlink:href="#GLYPHcmr10_108" x="30.583919"></use>
    <use xlink:href="#GLYPHcmr10_97" x="33.361749"></use>
    <use xlink:href="#GLYPHcmr10_100" x="38.361844"></use>
    <use xlink:href="#GLYPHcmr10_111" x="43.917505"></use>
    <use xlink:href="#GLYPHcmr10_114" x="48.917600"></use>
  </g>
  <path d="M67.819641 14.968613L126.455826 14.968613L126.455826 2.050095L67.819641 2.050095Z" style="stroke:rgb(0.000000%,0.000000%,0.000000%); stroke-width: 0.500000;stroke-linecap: round;stroke-linejoin: round;stroke-miterlimit: 10.000000;fill: none;"></path>
  <path d="M149.798325 14.178635L155.467606 14.178635L161.136887 2.840073L166.806168 2.840073" style="stroke:rgb(0.000000%,0.000000%,0.000000%); stroke-width: 1.000000;stroke-linecap: round;stroke-linejoin: round;stroke-miterlimit: 10.000000;fill: none;"></path>
  <path d="M146.298309 17.678635L170.306168 17.678635L170.306168 -0.659927L146.298309 -0.659927Z" style="stroke:rgb(0.000000%,0.000000%,0.000000%); stroke-width: 0.500000;stroke-linecap: round;stroke-linejoin: round;stroke-miterlimit: 10.000000;fill: none;"></path>
  <g transform="translate(193.377106 11.000000)" style="fill: rgb(0.000000%,0.000000%,0.000000%);">
    <use xlink:href="#GLYPHcmr10_43"></use>
  </g>
  <path d="M204.354263 8.509354C204.354263 4.586594,201.174225 1.406555,197.251465 1.406555C193.328690 1.406555,190.148651 4.586594,190.148651 8.509354C190.148651 12.432114,193.328690 15.612152,197.251465 15.612152C201.174225 15.612152,204.354263 12.432114,204.354263 8.509354Z" style="stroke:rgb(0.000000%,0.000000%,0.000000%); stroke-width: 0.500000;stroke-linecap: round;stroke-linejoin: round;stroke-miterlimit: 10.000000;fill: none;"></path>
  <g transform="translate(227.196762 11.913254)" style="fill: rgb(0.000000%,0.000000%,0.000000%);">
    <use xlink:href="#GLYPHcmr10_86"></use>
    <use xlink:href="#GLYPHcmr10_70" x="7.500135"></use>
    <use xlink:href="#GLYPHcmr10_68" x="14.028040"></use>
  </g>
  <path d="M224.196747 14.913254L251.782547 14.913254L251.782547 2.105453L224.196747 2.105453Z" style="stroke:rgb(0.000000%,0.000000%,0.000000%); stroke-width: 0.500000;stroke-linecap: round;stroke-linejoin: round;stroke-miterlimit: 10.000000;fill: none;"></path>
  <g transform="translate(274.625046 11.913254)" style="fill: rgb(0.000000%,0.000000%,0.000000%);">
    <use xlink:href="#GLYPHcmr10_77"></use>
    <use xlink:href="#GLYPHcmr10_111" x="9.166833"></use>
    <use xlink:href="#GLYPHcmr10_116" x="14.166928"></use>
    <use xlink:href="#GLYPHcmr10_111" x="18.055890"></use>
    <use xlink:href="#GLYPHcmr10_114" x="23.055985"></use>
  </g>
  <path d="M271.625031 14.913254L304.496597 14.913254L304.496597 2.105453L271.625031 2.105453Z" style="stroke:rgb(0.000000%,0.000000%,0.000000%); stroke-width: 0.500000;stroke-linecap: round;stroke-linejoin: round;stroke-miterlimit: 10.000000;fill: none;"></path>
  <g transform="translate(-0.041321 11.818359)" style="fill: rgb(0.000000%,0.000000%,0.000000%);">
    <use xlink:href="#GLYPHcmmi10_33"></use>
  </g>
  <g transform="translate(6.517380 8.202957)" style="fill: rgb(0.000000%,0.000000%,0.000000%);">
    <use xlink:href="#GLYPHcmmi7_114"></use>
  </g>
  <g transform="translate(347.181564 10.654114)" style="fill: rgb(0.000000%,0.000000%,0.000000%);">
    <use xlink:href="#GLYPHcmmi10_33"></use>
  </g>
  <g transform="translate(136.633423 27.597137)" style="fill: rgb(0.000000%,0.000000%,0.000000%);">
    <use xlink:href="#GLYPHcmr10_76"></use>
    <use xlink:href="#GLYPHcmr10_105" x="6.250115"></use>
    <use xlink:href="#GLYPHcmr10_109" x="9.027945"></use>
    <use xlink:href="#GLYPHcmr10_105" x="17.361437"></use>
    <use xlink:href="#GLYPHcmr10_116" x="20.139267"></use>
    <use xlink:href="#GLYPHcmr10_97" x="24.028230"></use>
    <use xlink:href="#GLYPHcmr10_100" x="29.028324"></use>
    <use xlink:href="#GLYPHcmr10_111" x="34.583985"></use>
    <use xlink:href="#GLYPHcmr10_114" x="39.584080"></use>
  </g>
  <path d="M13.929077 8.509354L33.771561 8.509354" style="stroke:rgb(0.000000%,0.000000%,0.000000%); stroke-width: 0.500000;stroke-linecap: round;stroke-linejoin: round;stroke-miterlimit: 10.000000;fill: none;"></path>
  <path d="M30.076126 10.040085L33.771561 8.509354L30.076126 6.978622Z" style="stroke:rgb(0.000000%,0.000000%,0.000000%); stroke-width: 0.500000;fill: rgb(0.000000%,0.000000%,0.000000%);"></path>
  <path d="M47.977158 8.509354L67.819641 8.509354" style="stroke:rgb(0.000000%,0.000000%,0.000000%); stroke-width: 0.500000;stroke-linecap: round;stroke-linejoin: round;stroke-miterlimit: 10.000000;fill: none;"></path>
  <path d="M64.124207 10.040085L67.819641 8.509354L64.124207 6.978622Z" style="stroke:rgb(0.000000%,0.000000%,0.000000%); stroke-width: 0.500000;fill: rgb(0.000000%,0.000000%,0.000000%);"></path>
  <path d="M126.455826 8.509354L146.298309 8.509354" style="stroke:rgb(0.000000%,0.000000%,0.000000%); stroke-width: 0.500000;stroke-linecap: round;stroke-linejoin: round;stroke-miterlimit: 10.000000;fill: none;"></path>
  <path d="M142.602875 10.040085L146.298309 8.509354L142.602875 6.978622Z" style="stroke:rgb(0.000000%,0.000000%,0.000000%); stroke-width: 0.500000;fill: rgb(0.000000%,0.000000%,0.000000%);"></path>
  <path d="M170.306168 8.509354L190.148651 8.509354" style="stroke:rgb(0.000000%,0.000000%,0.000000%); stroke-width: 0.500000;stroke-linecap: round;stroke-linejoin: round;stroke-miterlimit: 10.000000;fill: none;"></path>
  <path d="M186.453217 10.040085L190.148651 8.509354L186.453217 6.978622Z" style="stroke:rgb(0.000000%,0.000000%,0.000000%); stroke-width: 0.500000;fill: rgb(0.000000%,0.000000%,0.000000%);"></path>
  <path d="M204.354263 8.509354L224.196747 8.509354" style="stroke:rgb(0.000000%,0.000000%,0.000000%); stroke-width: 0.500000;stroke-linecap: round;stroke-linejoin: round;stroke-miterlimit: 10.000000;fill: none;"></path>
  <path d="M220.501312 10.040085L224.196747 8.509354L220.501312 6.978622Z" style="stroke:rgb(0.000000%,0.000000%,0.000000%); stroke-width: 0.500000;fill: rgb(0.000000%,0.000000%,0.000000%);"></path>
  <path d="M251.782547 8.509354L271.625031 8.509354" style="stroke:rgb(0.000000%,0.000000%,0.000000%); stroke-width: 0.500000;stroke-linecap: round;stroke-linejoin: round;stroke-miterlimit: 10.000000;fill: none;"></path>
  <path d="M267.929596 10.040085L271.625031 8.509354L267.929596 6.978622Z" style="stroke:rgb(0.000000%,0.000000%,0.000000%); stroke-width: 0.500000;fill: rgb(0.000000%,0.000000%,0.000000%);"></path>
  <path d="M304.496597 8.509354L324.339081 8.509354L344.181564 8.509354" style="stroke:rgb(0.000000%,0.000000%,0.000000%); stroke-width: 0.500000;stroke-linecap: round;stroke-linejoin: round;stroke-miterlimit: 10.000000;fill: none;"></path>
  <path d="M340.486130 10.040085L344.181564 8.509354L340.486130 6.978622Z" style="stroke:rgb(0.000000%,0.000000%,0.000000%); stroke-width: 0.500000;fill: rgb(0.000000%,0.000000%,0.000000%);"></path>
  <g transform="translate(223.834351 40.259659)" style="fill: rgb(0.000000%,0.000000%,0.000000%);">
    <use xlink:href="#GLYPHcmr10_83"></use>
    <use xlink:href="#GLYPHcmr10_101" x="5.555661"></use>
    <use xlink:href="#GLYPHcmr10_110" x="10.000190"></use>
    <use xlink:href="#GLYPHcmr10_115" x="15.555851"></use>
    <use xlink:href="#GLYPHcmr10_111" x="19.500365"></use>
    <use xlink:href="#GLYPHcmr10_114" x="24.500460"></use>
  </g>
  <path d="M220.834351 43.259659L255.144958 43.259659L255.144958 30.451859L220.834351 30.451859Z" style="stroke:rgb(0.000000%,0.000000%,0.000000%); stroke-width: 0.500000;stroke-linecap: round;stroke-linejoin: round;stroke-miterlimit: 10.000000;fill: none;"></path>
  <g transform="translate(92.986633 40.065964)" style="fill: rgb(0.000000%,0.000000%,0.000000%);">
    <use xlink:href="#GLYPHcmr10_45"></use>
    <use xlink:href="#GLYPHcmr10_49" x="3.333397"></use>
  </g>
  <path d="M89.986633 43.065964L104.288849 43.065964L104.288849 30.645554L89.986633 30.645554Z" style="stroke:rgb(0.000000%,0.000000%,0.000000%); stroke-width: 0.500000;stroke-linecap: round;stroke-linejoin: round;stroke-miterlimit: 10.000000;fill: none;"></path>
  <path d="M324.339081 8.509354L324.339081 36.855759L255.144958 36.855759" style="stroke:rgb(0.000000%,0.000000%,0.000000%); stroke-width: 0.500000;stroke-linecap: round;stroke-linejoin: round;stroke-miterlimit: 10.000000;fill: none;"></path>
  <path d="M258.840912 35.324814L255.144958 36.855759L258.840912 38.386703Z" style="stroke:rgb(0.000000%,0.000000%,0.000000%); stroke-width: 0.500000;fill: rgb(0.000000%,0.000000%,0.000000%);"></path>
  <path d="M220.834351 36.855759L197.251465 36.855759L197.251465 15.612152" style="stroke:rgb(0.000000%,0.000000%,0.000000%); stroke-width: 0.500000;stroke-linecap: round;stroke-linejoin: round;stroke-miterlimit: 10.000000;fill: none;"></path>
  <path d="M198.782242 19.307678L197.251465 15.612152L195.720688 19.307678Z" style="stroke:rgb(0.000000%,0.000000%,0.000000%); stroke-width: 0.500000;fill: rgb(0.000000%,0.000000%,0.000000%);"></path>
  <path d="M197.251465 36.855759L104.288849 36.855759" style="stroke:rgb(0.000000%,0.000000%,0.000000%); stroke-width: 0.500000;stroke-linecap: round;stroke-linejoin: round;stroke-miterlimit: 10.000000;fill: none;"></path>
  <path d="M107.984497 35.324936L104.288849 36.855759L107.984497 38.386581Z" style="stroke:rgb(0.000000%,0.000000%,0.000000%); stroke-width: 0.500000;fill: rgb(0.000000%,0.000000%,0.000000%);"></path>
  <path d="M89.986633 36.855759L40.874359 36.855759L40.874359 15.612152" style="stroke:rgb(0.000000%,0.000000%,0.000000%); stroke-width: 0.500000;stroke-linecap: round;stroke-linejoin: round;stroke-miterlimit: 10.000000;fill: none;"></path>
  <path d="M42.405136 19.307678L40.874359 15.612152L39.343582 19.307678Z" style="stroke:rgb(0.000000%,0.000000%,0.000000%); stroke-width: 0.500000;fill: rgb(0.000000%,0.000000%,0.000000%);"></path>
</svg>
