<?xml version="1.0"?>
<!-- Created by MetaPost 2.00 on 2021.06.10:0952 -->
<svg version="1.1" xmlns="http://www.w3.org/2000/svg" xmlns:xlink="http://www.w3.org/1999/xlink" width="224.933517" height="48.710236" viewBox="0 0 224.933517 48.710236">
<!-- Original BoundingBox: -28.386475 -33.256866 196.547043 15.453369 -->
  <defs>
    <g transform="scale(0.009963,0.009963)" id="GLYPHcmr10_10">
      <path style="fill-rule: evenodd;" d="M677.000000 -162.000000L652.000000 -162.000000C647.000000 -136.000000,643.000000 -113.000000,634.000000 -89.000000C629.000000 -73.000000,626.000000 -65.000000,568.000000 -65.000000L488.000000 -65.000000C501.000000 -121.000000,532.000000 -169.000000,577.000000 -235.000000C624.000000 -306.000000,665.000000 -375.000000,665.000000 -454.000000C665.000000 -593.000000,530.000000 -705.000000,361.000000 -705.000000C189.000000 -705.000000,56.000000 -591.000000,56.000000 -454.000000C56.000000 -375.000000,97.000000 -306.000000,144.000000 -235.000000C188.000000 -169.000000,220.000000 -121.000000,233.000000 -65.000000L153.000000 -65.000000C95.000000 -65.000000,92.000000 -73.000000,87.000000 -88.000000C79.000000 -111.000000,74.000000 -137.000000,69.000000 -162.000000L44.000000 -162.000000L77.000000 -0.000000L237.000000 -0.000000C259.000000 -0.000000,262.000000 -0.000000,262.000000 -21.000000C262.000000 -91.000000,231.000000 -179.000000,208.000000 -243.000000C187.000000 -301.000000,159.000000 -380.000000,159.000000 -455.000000C159.000000 -615.000000,269.000000 -683.000000,360.000000 -683.000000C456.000000 -683.000000,562.000000 -611.000000,562.000000 -455.000000C562.000000 -380.000000,535.000000 -304.000000,506.000000 -222.000000C491.000000 -180.000000,459.000000 -90.000000,459.000000 -21.000000C459.000000 -0.000000,462.000000 -0.000000,485.000000 -0.000000L644.000000 -0.000000"></path>
    </g>
    <g transform="scale(0.009963,0.009963)" id="GLYPHcmr10_40">
      <path style="fill-rule: evenodd;" d="M331.000000 240.000000C331.000000 237.000000,331.000000 235.000000,314.000000 218.000000C189.000000 92.000000,157.000000 -97.000000,157.000000 -250.000000C157.000000 -424.000000,195.000000 -598.000000,318.000000 -723.000000C331.000000 -735.000000,331.000000 -737.000000,331.000000 -740.000000C331.000000 -747.000000,327.000000 -750.000000,321.000000 -750.000000C311.000000 -750.000000,221.000000 -682.000000,162.000000 -555.000000C111.000000 -445.000000,99.000000 -334.000000,99.000000 -250.000000C99.000000 -172.000000,110.000000 -51.000000,165.000000 62.000000C225.000000 185.000000,311.000000 250.000000,321.000000 250.000000C327.000000 250.000000,331.000000 247.000000,331.000000 240.000000"></path>
    </g>
    <g transform="scale(0.009963,0.009963)" id="GLYPHcmr10_41">
      <path style="fill-rule: evenodd;" d="M289.000000 -250.000000C289.000000 -328.000000,278.000000 -449.000000,223.000000 -562.000000C163.000000 -685.000000,77.000000 -750.000000,67.000000 -750.000000C61.000000 -750.000000,57.000000 -746.000000,57.000000 -740.000000C57.000000 -737.000000,57.000000 -735.000000,76.000000 -717.000000C174.000000 -618.000000,231.000000 -459.000000,231.000000 -250.000000C231.000000 -79.000000,194.000000 97.000000,70.000000 223.000000C57.000000 235.000000,57.000000 237.000000,57.000000 240.000000C57.000000 246.000000,61.000000 250.000000,67.000000 250.000000C77.000000 250.000000,167.000000 182.000000,226.000000 55.000000C277.000000 -55.000000,289.000000 -166.000000,289.000000 -250.000000"></path>
    </g>
    <g transform="scale(0.009963,0.009963)" id="GLYPHcmr10_43">
      <path style="fill-rule: evenodd;" d="M409.000000 -230.000000L688.000000 -230.000000C702.000000 -230.000000,721.000000 -230.000000,721.000000 -250.000000C721.000000 -270.000000,702.000000 -270.000000,688.000000 -270.000000L409.000000 -270.000000L409.000000 -550.000000C409.000000 -564.000000,409.000000 -583.000000,389.000000 -583.000000C369.000000 -583.000000,369.000000 -564.000000,369.000000 -550.000000L369.000000 -270.000000L89.000000 -270.000000C75.000000 -270.000000,56.000000 -270.000000,56.000000 -250.000000C56.000000 -230.000000,75.000000 -230.000000,89.000000 -230.000000L369.000000 -230.000000L369.000000 50.000000C369.000000 64.000000,369.000000 83.000000,389.000000 83.000000C409.000000 83.000000,409.000000 64.000000,409.000000 50.000000"></path>
    </g>
    <g transform="scale(0.006974,0.006974)" id="GLYPHcmr7_43">
      <path style="fill-rule: evenodd;" d="M463.000000 -226.000000L769.000000 -226.000000C782.000000 -226.000000,806.000000 -226.000000,806.000000 -250.000000C806.000000 -275.000000,783.000000 -275.000000,769.000000 -275.000000L463.000000 -275.000000L463.000000 -582.000000C463.000000 -595.000000,463.000000 -619.000000,439.000000 -619.000000C414.000000 -619.000000,414.000000 -596.000000,414.000000 -582.000000L414.000000 -275.000000L107.000000 -275.000000C94.000000 -275.000000,70.000000 -275.000000,70.000000 -251.000000C70.000000 -226.000000,93.000000 -226.000000,107.000000 -226.000000L414.000000 -226.000000L414.000000 81.000000C414.000000 94.000000,414.000000 118.000000,438.000000 118.000000C463.000000 118.000000,463.000000 95.000000,463.000000 81.000000"></path>
    </g>
    <g transform="scale(0.006974,0.006974)" id="GLYPHcmr7_49">
      <path style="fill-rule: evenodd;" d="M335.000000 -636.000000C335.000000 -663.000000,333.000000 -664.000000,305.000000 -664.000000C241.000000 -601.000000,150.000000 -600.000000,109.000000 -600.000000L109.000000 -564.000000C133.000000 -564.000000,199.000000 -564.000000,254.000000 -592.000000L254.000000 -82.000000C254.000000 -49.000000,254.000000 -36.000000,154.000000 -36.000000L116.000000 -36.000000L116.000000 -0.000000C134.000000 -1.000000,257.000000 -4.000000,294.000000 -4.000000C325.000000 -4.000000,451.000000 -1.000000,473.000000 -0.000000L473.000000 -36.000000L435.000000 -36.000000C335.000000 -36.000000,335.000000 -49.000000,335.000000 -82.000000"></path>
    </g>
    <g transform="scale(0.006974,0.006974)" id="GLYPHcmmi7_66">
      <path style="fill-rule: evenodd;" d="M190.000000 -78.000000C181.000000 -44.000000,179.000000 -36.000000,102.000000 -36.000000C85.000000 -36.000000,72.000000 -36.000000,72.000000 -15.000000C72.000000 -0.000000,84.000000 -0.000000,102.000000 -0.000000L489.000000 -0.000000C657.000000 -0.000000,786.000000 -115.000000,786.000000 -214.000000C786.000000 -285.000000,721.000000 -346.000000,615.000000 -357.000000C736.000000 -379.000000,837.000000 -455.000000,837.000000 -541.000000C837.000000 -617.000000,760.000000 -683.000000,630.000000 -683.000000L266.000000 -683.000000C247.000000 -683.000000,234.000000 -683.000000,234.000000 -661.000000C234.000000 -647.000000,246.000000 -647.000000,266.000000 -647.000000C267.000000 -647.000000,286.000000 -647.000000,304.000000 -645.000000C325.000000 -643.000000,327.000000 -641.000000,327.000000 -631.000000C327.000000 -629.000000,327.000000 -624.000000,323.000000 -609.000000M350.000000 -369.000000L411.000000 -613.000000C419.000000 -644.000000,420.000000 -647.000000,462.000000 -647.000000L614.000000 -647.000000C716.000000 -647.000000,739.000000 -580.000000,739.000000 -542.000000C739.000000 -461.000000,648.000000 -369.000000,514.000000 -369.000000M302.000000 -36.000000C271.000000 -36.000000,270.000000 -37.000000,270.000000 -46.000000C270.000000 -47.000000,270.000000 -52.000000,274.000000 -67.000000L343.000000 -341.000000L555.000000 -341.000000C649.000000 -341.000000,685.000000 -279.000000,685.000000 -221.000000C685.000000 -122.000000,584.000000 -36.000000,463.000000 -36.000000"></path>
    </g>
    <g transform="scale(0.006974,0.006974)" id="GLYPHcmmi7_74">
      <path style="fill-rule: evenodd;" d="M597.000000 -606.000000C606.000000 -641.000000,607.000000 -647.000000,663.000000 -647.000000C675.000000 -647.000000,689.000000 -647.000000,689.000000 -668.000000C689.000000 -679.000000,681.000000 -683.000000,674.000000 -683.000000C650.000000 -683.000000,590.000000 -679.000000,566.000000 -679.000000C545.000000 -679.000000,511.000000 -680.000000,489.000000 -680.000000C464.000000 -681.000000,435.000000 -683.000000,410.000000 -683.000000C403.000000 -683.000000,388.000000 -683.000000,388.000000 -662.000000C388.000000 -647.000000,397.000000 -647.000000,427.000000 -647.000000C450.000000 -647.000000,454.000000 -647.000000,479.000000 -645.000000C508.000000 -642.000000,511.000000 -639.000000,511.000000 -627.000000C511.000000 -620.000000,511.000000 -618.000000,507.000000 -604.000000L392.000000 -146.000000C373.000000 -71.000000,309.000000 -8.000000,244.000000 -8.000000C230.000000 -8.000000,167.000000 -11.000000,144.000000 -60.000000C202.000000 -60.000000,215.000000 -107.000000,215.000000 -125.000000C215.000000 -153.000000,191.000000 -168.000000,169.000000 -168.000000C142.000000 -168.000000,102.000000 -146.000000,102.000000 -90.000000C102.000000 -25.000000,163.000000 20.000000,247.000000 20.000000C345.000000 20.000000,456.000000 -43.000000,481.000000 -143.000000"></path>
    </g>
    <g transform="scale(0.006974,0.006974)" id="GLYPHcmmi7_76">
      <path style="fill-rule: evenodd;" d="M412.000000 -601.000000C421.000000 -637.000000,424.000000 -647.000000,516.000000 -647.000000C547.000000 -647.000000,557.000000 -647.000000,557.000000 -669.000000C557.000000 -670.000000,556.000000 -683.000000,540.000000 -683.000000C517.000000 -683.000000,490.000000 -681.000000,466.000000 -680.000000C441.000000 -679.000000,411.000000 -679.000000,386.000000 -679.000000C365.000000 -679.000000,338.000000 -680.000000,317.000000 -680.000000C296.000000 -680.000000,272.000000 -683.000000,252.000000 -683.000000C246.000000 -683.000000,231.000000 -683.000000,231.000000 -661.000000C231.000000 -647.000000,243.000000 -647.000000,263.000000 -647.000000C264.000000 -647.000000,283.000000 -647.000000,301.000000 -645.000000C322.000000 -643.000000,324.000000 -641.000000,324.000000 -631.000000C324.000000 -629.000000,324.000000 -624.000000,320.000000 -609.000000L187.000000 -78.000000C178.000000 -44.000000,176.000000 -36.000000,99.000000 -36.000000C82.000000 -36.000000,69.000000 -36.000000,69.000000 -15.000000C69.000000 -0.000000,81.000000 -0.000000,99.000000 -0.000000L602.000000 -0.000000C627.000000 -0.000000,628.000000 -1.000000,636.000000 -20.000000C646.000000 -47.000000,721.000000 -241.000000,721.000000 -249.000000C721.000000 -252.000000,719.000000 -263.000000,704.000000 -263.000000C692.000000 -263.000000,690.000000 -258.000000,684.000000 -242.000000C646.000000 -147.000000,602.000000 -36.000000,419.000000 -36.000000L306.000000 -36.000000C275.000000 -36.000000,274.000000 -37.000000,274.000000 -46.000000C274.000000 -47.000000,274.000000 -52.000000,278.000000 -67.000000"></path>
    </g>
    <g transform="scale(0.006974,0.006974)" id="GLYPHcmmi7_82">
      <path style="fill-rule: evenodd;" d="M413.000000 -613.000000C420.000000 -641.000000,422.000000 -644.000000,444.000000 -647.000000L508.000000 -647.000000C601.000000 -647.000000,716.000000 -647.000000,716.000000 -544.000000C716.000000 -503.000000,697.000000 -440.000000,650.000000 -404.000000C609.000000 -372.000000,547.000000 -356.000000,478.000000 -356.000000L349.000000 -356.000000M594.000000 -340.000000C713.000000 -368.000000,819.000000 -440.000000,819.000000 -529.000000C819.000000 -615.000000,717.000000 -683.000000,572.000000 -683.000000L265.000000 -683.000000C246.000000 -683.000000,233.000000 -683.000000,233.000000 -661.000000C233.000000 -647.000000,245.000000 -647.000000,265.000000 -647.000000C266.000000 -647.000000,285.000000 -647.000000,303.000000 -645.000000C324.000000 -643.000000,326.000000 -641.000000,326.000000 -631.000000C326.000000 -629.000000,326.000000 -624.000000,322.000000 -609.000000L189.000000 -78.000000C181.000000 -44.000000,179.000000 -36.000000,101.000000 -36.000000C84.000000 -36.000000,71.000000 -36.000000,71.000000 -15.000000C71.000000 -5.000000,78.000000 -0.000000,87.000000 -0.000000C106.000000 -0.000000,129.000000 -3.000000,149.000000 -3.000000C168.000000 -3.000000,197.000000 -4.000000,215.000000 -4.000000C235.000000 -4.000000,258.000000 -3.000000,279.000000 -3.000000C300.000000 -3.000000,325.000000 -0.000000,346.000000 -0.000000C351.000000 -0.000000,367.000000 -0.000000,367.000000 -21.000000C367.000000 -36.000000,357.000000 -36.000000,334.000000 -36.000000C318.000000 -36.000000,314.000000 -36.000000,296.000000 -38.000000C274.000000 -41.000000,274.000000 -43.000000,274.000000 -53.000000C274.000000 -54.000000,274.000000 -60.000000,278.000000 -75.000000L341.000000 -328.000000L477.000000 -328.000000C563.000000 -328.000000,600.000000 -285.000000,600.000000 -238.000000C600.000000 -225.000000,591.000000 -191.000000,586.000000 -168.000000C574.000000 -122.000000,570.000000 -107.000000,570.000000 -90.000000C570.000000 -11.000000,643.000000 20.000000,717.000000 20.000000C809.000000 20.000000,849.000000 -78.000000,849.000000 -96.000000C849.000000 -99.000000,847.000000 -110.000000,832.000000 -110.000000C819.000000 -110.000000,817.000000 -103.000000,814.000000 -93.000000C800.000000 -49.000000,763.000000 -8.000000,721.000000 -8.000000C695.000000 -8.000000,676.000000 -19.000000,676.000000 -73.000000C676.000000 -98.000000,682.000000 -150.000000,686.000000 -177.000000C690.000000 -204.000000,690.000000 -214.000000,690.000000 -224.000000C690.000000 -236.000000,690.000000 -268.000000,662.000000 -298.000000C643.000000 -319.000000,616.000000 -332.000000,594.000000 -340.000000"></path>
    </g>
    <g transform="scale(0.006974,0.006974)" id="GLYPHcmmi7_97">
      <path style="fill-rule: evenodd;" d="M422.000000 -382.000000C401.000000 -415.000000,367.000000 -441.000000,319.000000 -441.000000C191.000000 -441.000000,61.000000 -300.000000,61.000000 -156.000000C61.000000 -59.000000,126.000000 10.000000,212.000000 10.000000C266.000000 10.000000,314.000000 -21.000000,354.000000 -60.000000C373.000000 -0.000000,431.000000 10.000000,457.000000 10.000000C493.000000 10.000000,518.000000 -12.000000,536.000000 -43.000000C558.000000 -82.000000,571.000000 -139.000000,571.000000 -143.000000C571.000000 -156.000000,558.000000 -156.000000,555.000000 -156.000000C541.000000 -156.000000,540.000000 -152.000000,533.000000 -125.000000C521.000000 -77.000000,502.000000 -18.000000,460.000000 -18.000000C434.000000 -18.000000,427.000000 -40.000000,427.000000 -67.000000C427.000000 -84.000000,435.000000 -120.000000,442.000000 -146.000000C449.000000 -173.000000,459.000000 -214.000000,464.000000 -236.000000L484.000000 -312.000000C490.000000 -338.000000,502.000000 -385.000000,502.000000 -390.000000C502.000000 -412.000000,484.000000 -422.000000,468.000000 -422.000000C451.000000 -422.000000,428.000000 -410.000000,422.000000 -382.000000M358.000000 -125.000000C351.000000 -97.000000,329.000000 -77.000000,307.000000 -58.000000C298.000000 -50.000000,258.000000 -18.000000,215.000000 -18.000000C178.000000 -18.000000,142.000000 -44.000000,142.000000 -115.000000C142.000000 -168.000000,171.000000 -278.000000,194.000000 -318.000000C240.000000 -398.000000,291.000000 -413.000000,319.000000 -413.000000C389.000000 -413.000000,408.000000 -337.000000,408.000000 -326.000000C408.000000 -322.000000,406.000000 -315.000000,405.000000 -312.000000"></path>
    </g>
    <g transform="scale(0.006974,0.006974)" id="GLYPHcmmi7_115">
      <path style="fill-rule: evenodd;" d="M431.000000 -376.000000C405.000000 -370.000000,389.000000 -349.000000,389.000000 -329.000000C389.000000 -306.000000,409.000000 -297.000000,422.000000 -297.000000C432.000000 -297.000000,470.000000 -303.000000,470.000000 -354.000000C470.000000 -419.000000,398.000000 -441.000000,337.000000 -441.000000C181.000000 -441.000000,153.000000 -326.000000,153.000000 -295.000000C153.000000 -258.000000,174.000000 -234.000000,188.000000 -222.000000C214.000000 -202.000000,232.000000 -198.000000,301.000000 -186.000000C322.000000 -182.000000,386.000000 -170.000000,386.000000 -120.000000C386.000000 -103.000000,375.000000 -65.000000,333.000000 -40.000000C294.000000 -18.000000,245.000000 -18.000000,233.000000 -18.000000C193.000000 -18.000000,136.000000 -27.000000,113.000000 -60.000000C146.000000 -64.000000,168.000000 -89.000000,168.000000 -117.000000C168.000000 -142.000000,150.000000 -154.000000,129.000000 -154.000000C100.000000 -154.000000,71.000000 -131.000000,71.000000 -87.000000C71.000000 -27.000000,135.000000 10.000000,232.000000 10.000000C416.000000 10.000000,450.000000 -116.000000,450.000000 -155.000000C450.000000 -247.000000,349.000000 -265.000000,312.000000 -272.000000C303.000000 -274.000000,278.000000 -278.000000,272.000000 -280.000000C235.000000 -287.000000,217.000000 -308.000000,217.000000 -330.000000C217.000000 -353.000000,235.000000 -380.000000,257.000000 -394.000000C284.000000 -411.000000,319.000000 -413.000000,336.000000 -413.000000C357.000000 -413.000000,409.000000 -410.000000,431.000000 -376.000000"></path>
    </g>
    <g transform="scale(0.006974,0.006974)" id="GLYPHcmmi7_116">
      <path style="fill-rule: evenodd;" d="M246.000000 -395.000000L348.000000 -395.000000C367.000000 -395.000000,380.000000 -395.000000,380.000000 -417.000000C380.000000 -431.000000,367.000000 -431.000000,350.000000 -431.000000L255.000000 -431.000000L292.000000 -579.000000C293.000000 -584.000000,295.000000 -589.000000,295.000000 -593.000000C295.000000 -611.000000,281.000000 -625.000000,261.000000 -625.000000C236.000000 -625.000000,221.000000 -608.000000,214.000000 -582.000000C207.000000 -557.000000,220.000000 -605.000000,176.000000 -431.000000L74.000000 -431.000000C55.000000 -431.000000,42.000000 -431.000000,42.000000 -409.000000C42.000000 -395.000000,54.000000 -395.000000,72.000000 -395.000000L167.000000 -395.000000L108.000000 -159.000000C102.000000 -134.000000,93.000000 -98.000000,93.000000 -85.000000C93.000000 -26.000000,143.000000 10.000000,200.000000 10.000000C311.000000 10.000000,374.000000 -130.000000,374.000000 -143.000000C374.000000 -156.000000,361.000000 -156.000000,358.000000 -156.000000C346.000000 -156.000000,345.000000 -154.000000,337.000000 -137.000000C309.000000 -74.000000,258.000000 -18.000000,203.000000 -18.000000C182.000000 -18.000000,168.000000 -31.000000,168.000000 -67.000000C168.000000 -77.000000,172.000000 -98.000000,174.000000 -108.000000"></path>
    </g>
    <g transform="scale(0.006974,0.006974)" id="GLYPHcmmi7_118">
      <path style="fill-rule: evenodd;" d="M534.000000 -363.000000C534.000000 -441.000000,487.000000 -442.000000,484.000000 -442.000000C458.000000 -442.000000,430.000000 -415.000000,430.000000 -389.000000C430.000000 -372.000000,440.000000 -364.000000,447.000000 -358.000000C464.000000 -344.000000,484.000000 -318.000000,484.000000 -278.000000C484.000000 -233.000000,418.000000 -18.000000,299.000000 -18.000000C218.000000 -18.000000,218.000000 -90.000000,218.000000 -107.000000C218.000000 -153.000000,236.000000 -209.000000,273.000000 -302.000000C281.000000 -323.000000,287.000000 -338.000000,287.000000 -355.000000C287.000000 -407.000000,243.000000 -441.000000,192.000000 -441.000000C92.000000 -441.000000,47.000000 -304.000000,47.000000 -288.000000C47.000000 -275.000000,61.000000 -275.000000,64.000000 -275.000000C78.000000 -275.000000,79.000000 -280.000000,82.000000 -291.000000C106.000000 -373.000000,149.000000 -413.000000,189.000000 -413.000000C206.000000 -413.000000,214.000000 -402.000000,214.000000 -378.000000C214.000000 -355.000000,206.000000 -334.000000,196.000000 -311.000000C153.000000 -200.000000,142.000000 -157.000000,142.000000 -121.000000C142.000000 -22.000000,220.000000 10.000000,296.000000 10.000000C464.000000 10.000000,534.000000 -281.000000,534.000000 -363.000000"></path>
    </g>
    <g transform="scale(0.004981,0.004981)" id="GLYPHcmmi5_97">
      <path style="fill-rule: evenodd;" d="M578.000000 -324.000000C583.000000 -345.000000,593.000000 -382.000000,593.000000 -387.000000C593.000000 -404.000000,580.000000 -422.000000,556.000000 -422.000000C538.000000 -422.000000,514.000000 -410.000000,506.000000 -382.000000C487.000000 -408.000000,449.000000 -442.000000,386.000000 -442.000000C245.000000 -442.000000,105.000000 -305.000000,105.000000 -163.000000C105.000000 -61.000000,180.000000 11.000000,280.000000 11.000000C362.000000 11.000000,426.000000 -47.000000,438.000000 -59.000000C456.000000 -10.000000,511.000000 11.000000,556.000000 11.000000C596.000000 11.000000,623.000000 -12.000000,644.000000 -45.000000C670.000000 -84.000000,684.000000 -137.000000,684.000000 -144.000000C684.000000 -158.000000,667.000000 -158.000000,663.000000 -158.000000C645.000000 -158.000000,644.000000 -152.000000,639.000000 -136.000000C621.000000 -62.000000,595.000000 -23.000000,560.000000 -23.000000C532.000000 -23.000000,520.000000 -45.000000,520.000000 -76.000000C520.000000 -91.000000,530.000000 -129.000000,536.000000 -156.000000M444.000000 -133.000000C440.000000 -118.000000,440.000000 -116.000000,422.000000 -96.000000C385.000000 -54.000000,333.000000 -23.000000,283.000000 -23.000000C248.000000 -23.000000,195.000000 -42.000000,195.000000 -125.000000C195.000000 -171.000000,219.000000 -276.000000,254.000000 -328.000000C293.000000 -383.000000,344.000000 -408.000000,386.000000 -408.000000C431.000000 -408.000000,474.000000 -381.000000,490.000000 -321.000000"></path>
    </g>
    <g transform="scale(0.009963,0.009963)" id="GLYPHcmmi10_75">
      <path style="fill-rule: evenodd;" d="M509.000000 -404.000000C508.000000 -407.000000,504.000000 -415.000000,504.000000 -418.000000C504.000000 -419.000000,522.000000 -433.000000,533.000000 -441.000000L708.000000 -576.000000C802.000000 -645.000000,841.000000 -649.000000,871.000000 -652.000000C879.000000 -653.000000,889.000000 -654.000000,889.000000 -672.000000C889.000000 -676.000000,886.000000 -683.000000,878.000000 -683.000000C856.000000 -683.000000,831.000000 -680.000000,807.000000 -680.000000C771.000000 -680.000000,732.000000 -683.000000,696.000000 -683.000000C689.000000 -683.000000,677.000000 -683.000000,677.000000 -663.000000C677.000000 -656.000000,682.000000 -653.000000,689.000000 -652.000000C711.000000 -650.000000,720.000000 -645.000000,720.000000 -631.000000C720.000000 -613.000000,690.000000 -590.000000,684.000000 -585.000000L294.000000 -285.000000L374.000000 -606.000000C383.000000 -642.000000,385.000000 -652.000000,458.000000 -652.000000C483.000000 -652.000000,492.000000 -652.000000,492.000000 -672.000000C492.000000 -681.000000,484.000000 -683.000000,478.000000 -683.000000C450.000000 -683.000000,378.000000 -680.000000,350.000000 -680.000000C321.000000 -680.000000,250.000000 -683.000000,221.000000 -683.000000C214.000000 -683.000000,201.000000 -683.000000,201.000000 -664.000000C201.000000 -652.000000,210.000000 -652.000000,230.000000 -652.000000C243.000000 -652.000000,261.000000 -651.000000,273.000000 -650.000000C289.000000 -648.000000,295.000000 -645.000000,295.000000 -634.000000C295.000000 -630.000000,294.000000 -627.000000,291.000000 -615.000000L157.000000 -78.000000C147.000000 -39.000000,145.000000 -31.000000,66.000000 -31.000000C49.000000 -31.000000,38.000000 -31.000000,38.000000 -12.000000C38.000000 -0.000000,50.000000 -0.000000,53.000000 -0.000000C81.000000 -0.000000,152.000000 -3.000000,180.000000 -3.000000C201.000000 -3.000000,223.000000 -2.000000,244.000000 -2.000000C266.000000 -2.000000,288.000000 -0.000000,309.000000 -0.000000C316.000000 -0.000000,329.000000 -0.000000,329.000000 -20.000000C329.000000 -31.000000,320.000000 -31.000000,301.000000 -31.000000C264.000000 -31.000000,236.000000 -31.000000,236.000000 -49.000000C236.000000 -56.000000,242.000000 -78.000000,245.000000 -93.000000C259.000000 -145.000000,272.000000 -198.000000,285.000000 -250.000000L434.000000 -366.000000L550.000000 -97.000000C562.000000 -70.000000,562.000000 -68.000000,562.000000 -62.000000C562.000000 -32.000000,519.000000 -31.000000,510.000000 -31.000000C499.000000 -31.000000,488.000000 -31.000000,488.000000 -11.000000C488.000000 -0.000000,500.000000 -0.000000,502.000000 -0.000000C542.000000 -0.000000,584.000000 -3.000000,624.000000 -3.000000C646.000000 -3.000000,700.000000 -0.000000,722.000000 -0.000000C727.000000 -0.000000,740.000000 -0.000000,740.000000 -20.000000C740.000000 -31.000000,729.000000 -31.000000,720.000000 -31.000000C679.000000 -32.000000,666.000000 -41.000000,651.000000 -76.000000"></path>
    </g>
    <g transform="scale(0.009963,0.009963)" id="GLYPHcmmi10_86">
      <path style="fill-rule: evenodd;" d="M628.000000 -569.000000C677.000000 -647.000000,719.000000 -650.000000,756.000000 -652.000000C768.000000 -653.000000,769.000000 -670.000000,769.000000 -671.000000C769.000000 -679.000000,764.000000 -683.000000,756.000000 -683.000000C730.000000 -683.000000,701.000000 -680.000000,674.000000 -680.000000C641.000000 -680.000000,607.000000 -683.000000,575.000000 -683.000000C569.000000 -683.000000,556.000000 -683.000000,556.000000 -664.000000C556.000000 -653.000000,565.000000 -652.000000,572.000000 -652.000000C599.000000 -650.000000,618.000000 -640.000000,618.000000 -619.000000C618.000000 -604.000000,603.000000 -582.000000,603.000000 -581.000000L296.000000 -93.000000L228.000000 -622.000000C228.000000 -639.000000,251.000000 -652.000000,297.000000 -652.000000C311.000000 -652.000000,322.000000 -652.000000,322.000000 -672.000000C322.000000 -681.000000,314.000000 -683.000000,308.000000 -683.000000C268.000000 -683.000000,225.000000 -680.000000,184.000000 -680.000000C166.000000 -680.000000,147.000000 -681.000000,129.000000 -681.000000C111.000000 -681.000000,92.000000 -683.000000,75.000000 -683.000000C68.000000 -683.000000,56.000000 -683.000000,56.000000 -664.000000C56.000000 -652.000000,65.000000 -652.000000,81.000000 -652.000000C137.000000 -652.000000,138.000000 -643.000000,141.000000 -618.000000L220.000000 -1.000000C223.000000 19.000000,227.000000 22.000000,240.000000 22.000000C256.000000 22.000000,260.000000 17.000000,268.000000 4.000000"></path>
    </g>
    <g transform="scale(0.009963,0.009963)" id="GLYPHcmmi10_115">
      <path style="fill-rule: evenodd;" d="M391.000000 -374.000000C363.000000 -373.000000,343.000000 -351.000000,343.000000 -329.000000C343.000000 -315.000000,352.000000 -300.000000,374.000000 -300.000000C396.000000 -300.000000,420.000000 -317.000000,420.000000 -356.000000C420.000000 -401.000000,377.000000 -442.000000,301.000000 -442.000000C169.000000 -442.000000,132.000000 -340.000000,132.000000 -296.000000C132.000000 -218.000000,206.000000 -203.000000,235.000000 -197.000000C287.000000 -187.000000,339.000000 -176.000000,339.000000 -121.000000C339.000000 -95.000000,316.000000 -11.000000,196.000000 -11.000000C182.000000 -11.000000,105.000000 -11.000000,82.000000 -64.000000C120.000000 -59.000000,145.000000 -89.000000,145.000000 -117.000000C145.000000 -140.000000,129.000000 -152.000000,108.000000 -152.000000C82.000000 -152.000000,52.000000 -131.000000,52.000000 -86.000000C52.000000 -29.000000,109.000000 11.000000,195.000000 11.000000C357.000000 11.000000,396.000000 -110.000000,396.000000 -155.000000C396.000000 -191.000000,377.000000 -216.000000,365.000000 -228.000000C338.000000 -256.000000,309.000000 -261.000000,265.000000 -270.000000C229.000000 -278.000000,189.000000 -285.000000,189.000000 -330.000000C189.000000 -359.000000,213.000000 -420.000000,301.000000 -420.000000C326.000000 -420.000000,376.000000 -413.000000,391.000000 -374.000000"></path>
    </g>
  </defs>
  <g transform="translate(28.000000 15.000000)" style="fill: rgb(0.000000%,0.000000%,0.000000%);">
    <use xlink:href="#GLYPHcmr10_43"></use>
  </g>
  <path d="M38.977158 12.509354C38.977158 8.586594,35.797119 5.406555,31.874359 5.406555C27.951599 5.406555,24.771561 8.586594,24.771561 12.509354C24.771561 16.432114,27.951599 19.612152,31.874359 19.612152C35.797119 19.612152,38.977158 16.432114,38.977158 12.509354Z" style="stroke:rgb(0.000000%,0.000000%,0.000000%); stroke-width: 0.500000;stroke-linecap: round;stroke-linejoin: round;stroke-miterlimit: 10.000000;fill: none;"></path>
  <g transform="translate(76.057159 10.579300)" style="fill: rgb(0.000000%,0.000000%,0.000000%);">
    <use xlink:href="#GLYPHcmr7_49"></use>
  </g>
  <path d="M63.015152 12.011200L93.070358 12.011200" style="stroke:rgb(0.000000%,0.000000%,0.000000%); stroke-width: 0.398499;stroke-linejoin: round;stroke-miterlimit: 10.000000;fill: none;"></path>
  <g transform="translate(63.015152 17.937408)" style="fill: rgb(0.000000%,0.000000%,0.000000%);">
    <use xlink:href="#GLYPHcmmi7_76"></use>
  </g>
  <g transform="translate(68.480850 18.933701)" style="fill: rgb(0.000000%,0.000000%,0.000000%);">
    <use xlink:href="#GLYPHcmmi5_97"></use>
  </g>
  <g transform="translate(72.836655 17.937408)" style="fill: rgb(0.000000%,0.000000%,0.000000%);">
    <use xlink:href="#GLYPHcmmi7_115"></use>
  </g>
  <g transform="translate(76.596863 17.937408)" style="fill: rgb(0.000000%,0.000000%,0.000000%);">
    <use xlink:href="#GLYPHcmr7_43"></use>
  </g>
  <g transform="translate(82.712860 17.937408)" style="fill: rgb(0.000000%,0.000000%,0.000000%);">
    <use xlink:href="#GLYPHcmmi7_82"></use>
  </g>
  <g transform="translate(88.714554 18.933701)" style="fill: rgb(0.000000%,0.000000%,0.000000%);">
    <use xlink:href="#GLYPHcmmi5_97"></use>
  </g>
  <path d="M58.819641 21.933701L97.265976 21.933701L97.265976 3.085007L58.819641 3.085007Z" style="stroke:rgb(0.000000%,0.000000%,0.000000%); stroke-width: 0.500000;stroke-linecap: round;stroke-linejoin: round;stroke-miterlimit: 10.000000;fill: none;"></path>
  <g transform="translate(120.108475 15.166061)" style="fill: rgb(0.000000%,0.000000%,0.000000%);">
    <use xlink:href="#GLYPHcmmi10_75"></use>
  </g>
  <g transform="translate(128.569778 16.660461)" style="fill: rgb(0.000000%,0.000000%,0.000000%);">
    <use xlink:href="#GLYPHcmmi7_116"></use>
  </g>
  <path d="M117.108459 19.660461L135.077469 19.660461L135.077469 5.358246L117.108459 5.358246Z" style="stroke:rgb(0.000000%,0.000000%,0.000000%); stroke-width: 0.500000;stroke-linecap: round;stroke-linejoin: round;stroke-miterlimit: 10.000000;fill: none;"></path>
  <g transform="translate(167.780365 10.662308)" style="fill: rgb(0.000000%,0.000000%,0.000000%);">
    <use xlink:href="#GLYPHcmr7_49"></use>
  </g>
  <path d="M159.115463 12.094208L180.416565 12.094208" style="stroke:rgb(0.000000%,0.000000%,0.000000%); stroke-width: 0.398499;stroke-linejoin: round;stroke-miterlimit: 10.000000;fill: none;"></path>
  <g transform="translate(159.115463 18.020416)" style="fill: rgb(0.000000%,0.000000%,0.000000%);">
    <use xlink:href="#GLYPHcmmi7_74"></use>
  </g>
  <g transform="translate(164.181168 18.020416)" style="fill: rgb(0.000000%,0.000000%,0.000000%);">
    <use xlink:href="#GLYPHcmmi7_115"></use>
  </g>
  <g transform="translate(167.941467 18.020416)" style="fill: rgb(0.000000%,0.000000%,0.000000%);">
    <use xlink:href="#GLYPHcmr7_43"></use>
  </g>
  <g transform="translate(174.057373 18.020416)" style="fill: rgb(0.000000%,0.000000%,0.000000%);">
    <use xlink:href="#GLYPHcmmi7_66"></use>
  </g>
  <path d="M154.919952 21.850708L184.612076 21.850708L184.612076 3.167999L154.919952 3.167999Z" style="stroke:rgb(0.000000%,0.000000%,0.000000%); stroke-width: 0.500000;stroke-linecap: round;stroke-linejoin: round;stroke-miterlimit: 10.000000;fill: none;"></path>
  <g transform="translate(119.495575 43.512466)" style="fill: rgb(0.000000%,0.000000%,0.000000%);">
    <use xlink:href="#GLYPHcmmi10_75"></use>
  </g>
  <g transform="translate(127.956879 45.006866)" style="fill: rgb(0.000000%,0.000000%,0.000000%);">
    <use xlink:href="#GLYPHcmmi7_118"></use>
  </g>
  <path d="M116.495575 48.006866L135.690369 48.006866L135.690369 33.704651L116.495575 33.704651Z" style="stroke:rgb(0.000000%,0.000000%,0.000000%); stroke-width: 0.500000;stroke-linecap: round;stroke-linejoin: round;stroke-miterlimit: 10.000000;fill: none;"></path>
  <g transform="translate(-0.386475 8.014938)" style="fill: rgb(0.000000%,0.000000%,0.000000%);">
    <use xlink:href="#GLYPHcmmi10_86"></use>
  </g>
  <g transform="translate(5.425018 9.509338)" style="fill: rgb(0.000000%,0.000000%,0.000000%);">
    <use xlink:href="#GLYPHcmmi7_97"></use>
  </g>
  <g transform="translate(194.647552 7.018631)" style="fill: rgb(0.000000%,0.000000%,0.000000%);">
    <use xlink:href="#GLYPHcmr10_10"></use>
    <use xlink:href="#GLYPHcmr10_40" x="7.222359"></use>
  </g>
  <g transform="translate(205.717148 7.018631)" style="fill: rgb(0.000000%,0.000000%,0.000000%);">
    <use xlink:href="#GLYPHcmmi10_115"></use>
  </g>
  <g transform="translate(210.387146 7.018631)" style="fill: rgb(0.000000%,0.000000%,0.000000%);">
    <use xlink:href="#GLYPHcmr10_41"></use>
  </g>
  <path d="M204.454559 12.509354l0 0" style="stroke:rgb(0.000000%,0.000000%,0.000000%); stroke-width: 3.000000;stroke-linecap: round;stroke-linejoin: round;stroke-miterlimit: 10.000000;fill: none;"></path>
  <path d="M4.929077 12.509354L24.771561 12.509354" style="stroke:rgb(0.000000%,0.000000%,0.000000%); stroke-width: 0.500000;stroke-linecap: round;stroke-linejoin: round;stroke-miterlimit: 10.000000;fill: none;"></path>
  <path d="M21.076126 14.040085L24.771561 12.509354L21.076126 10.978622Z" style="stroke:rgb(0.000000%,0.000000%,0.000000%); stroke-width: 0.500000;fill: rgb(0.000000%,0.000000%,0.000000%);"></path>
  <path d="M38.977158 12.509354L58.819641 12.509354" style="stroke:rgb(0.000000%,0.000000%,0.000000%); stroke-width: 0.500000;stroke-linecap: round;stroke-linejoin: round;stroke-miterlimit: 10.000000;fill: none;"></path>
  <path d="M55.124207 14.040085L58.819641 12.509354L55.124207 10.978622Z" style="stroke:rgb(0.000000%,0.000000%,0.000000%); stroke-width: 0.500000;fill: rgb(0.000000%,0.000000%,0.000000%);"></path>
  <path d="M97.265976 12.509354L117.108459 12.509354" style="stroke:rgb(0.000000%,0.000000%,0.000000%); stroke-width: 0.500000;stroke-linecap: round;stroke-linejoin: round;stroke-miterlimit: 10.000000;fill: none;"></path>
  <path d="M113.413025 14.040085L117.108459 12.509354L113.413025 10.978622Z" style="stroke:rgb(0.000000%,0.000000%,0.000000%); stroke-width: 0.500000;fill: rgb(0.000000%,0.000000%,0.000000%);"></path>
  <path d="M135.077469 12.509354L154.919952 12.509354" style="stroke:rgb(0.000000%,0.000000%,0.000000%); stroke-width: 0.500000;stroke-linecap: round;stroke-linejoin: round;stroke-miterlimit: 10.000000;fill: none;"></path>
  <path d="M151.224518 14.040085L154.919952 12.509354L151.224518 10.978622Z" style="stroke:rgb(0.000000%,0.000000%,0.000000%); stroke-width: 0.500000;fill: rgb(0.000000%,0.000000%,0.000000%);"></path>
  <path d="M184.612076 12.509354L224.297043 12.509354" style="stroke:rgb(0.000000%,0.000000%,0.000000%); stroke-width: 0.500000;stroke-linecap: round;stroke-linejoin: round;stroke-miterlimit: 10.000000;fill: none;"></path>
  <path d="M220.601349 14.040192L224.297043 12.509354L220.601349 10.978516Z" style="stroke:rgb(0.000000%,0.000000%,0.000000%); stroke-width: 0.500000;fill: rgb(0.000000%,0.000000%,0.000000%);"></path>
  <path d="M204.454559 12.509354L204.454559 40.855759L135.690369 40.855759" style="stroke:rgb(0.000000%,0.000000%,0.000000%); stroke-width: 0.500000;stroke-linecap: round;stroke-linejoin: round;stroke-miterlimit: 10.000000;fill: none;"></path>
  <path d="M139.385635 39.325089L135.690369 40.855759L139.385635 42.386429Z" style="stroke:rgb(0.000000%,0.000000%,0.000000%); stroke-width: 0.500000;fill: rgb(0.000000%,0.000000%,0.000000%);"></path>
  <path d="M116.495575 40.855759L31.874359 40.855759L31.874359 19.612152" style="stroke:rgb(0.000000%,0.000000%,0.000000%); stroke-width: 0.500000;stroke-linecap: round;stroke-linejoin: round;stroke-miterlimit: 10.000000;fill: none;"></path>
  <path d="M33.405136 23.307678L31.874359 19.612152L30.343582 23.307678Z" style="stroke:rgb(0.000000%,0.000000%,0.000000%); stroke-width: 0.500000;fill: rgb(0.000000%,0.000000%,0.000000%);"></path>
</svg>
